<?xml version="1.0" encoding="utf-8" standalone="no"?>
<!DOCTYPE svg PUBLIC "-//W3C//DTD SVG 1.1//EN"
  "http://www.w3.org/Graphics/SVG/1.1/DTD/svg11.dtd">
<!-- Created with matplotlib (http://matplotlib.org/) -->
<svg height="345.6pt" version="1.1" viewBox="0 0 460.8 345.6" width="460.8pt" xmlns="http://www.w3.org/2000/svg" xmlns:xlink="http://www.w3.org/1999/xlink">
 <defs>
  <style type="text/css">
*{stroke-linecap:butt;stroke-linejoin:round;}
  </style>
 </defs>
 <g id="figure_1">
  <g id="patch_1">
   <path d="M 0 345.6 
L 460.8 345.6 
L 460.8 0 
L 0 0 
z
" style="fill:#ffffff;"/>
  </g>
  <g id="axes_1">
   <g id="patch_2">
    <path d="M 57.6 307.584 
L 414.72 307.584 
L 414.72 41.472 
L 57.6 41.472 
z
" style="fill:#ffffff;"/>
   </g>
   <g id="matplotlib.axis_1">
    <g id="xtick_1">
     <g id="line2d_1">
      <defs>
       <path d="M 0 0 
L 0 3.5 
" id="m7f3919406d" style="stroke:#000000;stroke-width:0.8;"/>
      </defs>
      <g>
       <use style="stroke:#000000;stroke-width:0.8;" x="73.832727" xlink:href="#m7f3919406d" y="307.584"/>
      </g>
     </g>
     <g id="text_1">
      <!-- 0 -->
      <defs>
       <path d="M 31.78125 66.40625 
Q 24.171875 66.40625 20.328125 58.90625 
Q 16.5 51.421875 16.5 36.375 
Q 16.5 21.390625 20.328125 13.890625 
Q 24.171875 6.390625 31.78125 6.390625 
Q 39.453125 6.390625 43.28125 13.890625 
Q 47.125 21.390625 47.125 36.375 
Q 47.125 51.421875 43.28125 58.90625 
Q 39.453125 66.40625 31.78125 66.40625 
z
M 31.78125 74.21875 
Q 44.046875 74.21875 50.515625 64.515625 
Q 56.984375 54.828125 56.984375 36.375 
Q 56.984375 17.96875 50.515625 8.265625 
Q 44.046875 -1.421875 31.78125 -1.421875 
Q 19.53125 -1.421875 13.0625 8.265625 
Q 6.59375 17.96875 6.59375 36.375 
Q 6.59375 54.828125 13.0625 64.515625 
Q 19.53125 74.21875 31.78125 74.21875 
z
" id="DejaVuSans-30"/>
      </defs>
      <g transform="translate(70.651477 322.182437)scale(0.1 -0.1)">
       <use xlink:href="#DejaVuSans-30"/>
      </g>
     </g>
    </g>
    <g id="xtick_2">
     <g id="line2d_2">
      <g>
       <use style="stroke:#000000;stroke-width:0.8;" x="138.776625" xlink:href="#m7f3919406d" y="307.584"/>
      </g>
     </g>
     <g id="text_2">
      <!-- 1000 -->
      <defs>
       <path d="M 12.40625 8.296875 
L 28.515625 8.296875 
L 28.515625 63.921875 
L 10.984375 60.40625 
L 10.984375 69.390625 
L 28.421875 72.90625 
L 38.28125 72.90625 
L 38.28125 8.296875 
L 54.390625 8.296875 
L 54.390625 0 
L 12.40625 0 
z
" id="DejaVuSans-31"/>
      </defs>
      <g transform="translate(126.051625 322.182437)scale(0.1 -0.1)">
       <use xlink:href="#DejaVuSans-31"/>
       <use x="63.623047" xlink:href="#DejaVuSans-30"/>
       <use x="127.246094" xlink:href="#DejaVuSans-30"/>
       <use x="190.869141" xlink:href="#DejaVuSans-30"/>
      </g>
     </g>
    </g>
    <g id="xtick_3">
     <g id="line2d_3">
      <g>
       <use style="stroke:#000000;stroke-width:0.8;" x="203.720523" xlink:href="#m7f3919406d" y="307.584"/>
      </g>
     </g>
     <g id="text_3">
      <!-- 2000 -->
      <defs>
       <path d="M 19.1875 8.296875 
L 53.609375 8.296875 
L 53.609375 0 
L 7.328125 0 
L 7.328125 8.296875 
Q 12.9375 14.109375 22.625 23.890625 
Q 32.328125 33.6875 34.8125 36.53125 
Q 39.546875 41.84375 41.421875 45.53125 
Q 43.3125 49.21875 43.3125 52.78125 
Q 43.3125 58.59375 39.234375 62.25 
Q 35.15625 65.921875 28.609375 65.921875 
Q 23.96875 65.921875 18.8125 64.3125 
Q 13.671875 62.703125 7.8125 59.421875 
L 7.8125 69.390625 
Q 13.765625 71.78125 18.9375 73 
Q 24.125 74.21875 28.421875 74.21875 
Q 39.75 74.21875 46.484375 68.546875 
Q 53.21875 62.890625 53.21875 53.421875 
Q 53.21875 48.921875 51.53125 44.890625 
Q 49.859375 40.875 45.40625 35.40625 
Q 44.1875 33.984375 37.640625 27.21875 
Q 31.109375 20.453125 19.1875 8.296875 
z
" id="DejaVuSans-32"/>
      </defs>
      <g transform="translate(190.995523 322.182437)scale(0.1 -0.1)">
       <use xlink:href="#DejaVuSans-32"/>
       <use x="63.623047" xlink:href="#DejaVuSans-30"/>
       <use x="127.246094" xlink:href="#DejaVuSans-30"/>
       <use x="190.869141" xlink:href="#DejaVuSans-30"/>
      </g>
     </g>
    </g>
    <g id="xtick_4">
     <g id="line2d_4">
      <g>
       <use style="stroke:#000000;stroke-width:0.8;" x="268.664421" xlink:href="#m7f3919406d" y="307.584"/>
      </g>
     </g>
     <g id="text_4">
      <!-- 3000 -->
      <defs>
       <path d="M 40.578125 39.3125 
Q 47.65625 37.796875 51.625 33 
Q 55.609375 28.21875 55.609375 21.1875 
Q 55.609375 10.40625 48.1875 4.484375 
Q 40.765625 -1.421875 27.09375 -1.421875 
Q 22.515625 -1.421875 17.65625 -0.515625 
Q 12.796875 0.390625 7.625 2.203125 
L 7.625 11.71875 
Q 11.71875 9.328125 16.59375 8.109375 
Q 21.484375 6.890625 26.8125 6.890625 
Q 36.078125 6.890625 40.9375 10.546875 
Q 45.796875 14.203125 45.796875 21.1875 
Q 45.796875 27.640625 41.28125 31.265625 
Q 36.765625 34.90625 28.71875 34.90625 
L 20.21875 34.90625 
L 20.21875 43.015625 
L 29.109375 43.015625 
Q 36.375 43.015625 40.234375 45.921875 
Q 44.09375 48.828125 44.09375 54.296875 
Q 44.09375 59.90625 40.109375 62.90625 
Q 36.140625 65.921875 28.71875 65.921875 
Q 24.65625 65.921875 20.015625 65.03125 
Q 15.375 64.15625 9.8125 62.3125 
L 9.8125 71.09375 
Q 15.4375 72.65625 20.34375 73.4375 
Q 25.25 74.21875 29.59375 74.21875 
Q 40.828125 74.21875 47.359375 69.109375 
Q 53.90625 64.015625 53.90625 55.328125 
Q 53.90625 49.265625 50.4375 45.09375 
Q 46.96875 40.921875 40.578125 39.3125 
z
" id="DejaVuSans-33"/>
      </defs>
      <g transform="translate(255.939421 322.182437)scale(0.1 -0.1)">
       <use xlink:href="#DejaVuSans-33"/>
       <use x="63.623047" xlink:href="#DejaVuSans-30"/>
       <use x="127.246094" xlink:href="#DejaVuSans-30"/>
       <use x="190.869141" xlink:href="#DejaVuSans-30"/>
      </g>
     </g>
    </g>
    <g id="xtick_5">
     <g id="line2d_5">
      <g>
       <use style="stroke:#000000;stroke-width:0.8;" x="333.608319" xlink:href="#m7f3919406d" y="307.584"/>
      </g>
     </g>
     <g id="text_5">
      <!-- 4000 -->
      <defs>
       <path d="M 37.796875 64.3125 
L 12.890625 25.390625 
L 37.796875 25.390625 
z
M 35.203125 72.90625 
L 47.609375 72.90625 
L 47.609375 25.390625 
L 58.015625 25.390625 
L 58.015625 17.1875 
L 47.609375 17.1875 
L 47.609375 0 
L 37.796875 0 
L 37.796875 17.1875 
L 4.890625 17.1875 
L 4.890625 26.703125 
z
" id="DejaVuSans-34"/>
      </defs>
      <g transform="translate(320.883319 322.182437)scale(0.1 -0.1)">
       <use xlink:href="#DejaVuSans-34"/>
       <use x="63.623047" xlink:href="#DejaVuSans-30"/>
       <use x="127.246094" xlink:href="#DejaVuSans-30"/>
       <use x="190.869141" xlink:href="#DejaVuSans-30"/>
      </g>
     </g>
    </g>
    <g id="xtick_6">
     <g id="line2d_6">
      <g>
       <use style="stroke:#000000;stroke-width:0.8;" x="398.552217" xlink:href="#m7f3919406d" y="307.584"/>
      </g>
     </g>
     <g id="text_6">
      <!-- 5000 -->
      <defs>
       <path d="M 10.796875 72.90625 
L 49.515625 72.90625 
L 49.515625 64.59375 
L 19.828125 64.59375 
L 19.828125 46.734375 
Q 21.96875 47.46875 24.109375 47.828125 
Q 26.265625 48.1875 28.421875 48.1875 
Q 40.625 48.1875 47.75 41.5 
Q 54.890625 34.8125 54.890625 23.390625 
Q 54.890625 11.625 47.5625 5.09375 
Q 40.234375 -1.421875 26.90625 -1.421875 
Q 22.3125 -1.421875 17.546875 -0.640625 
Q 12.796875 0.140625 7.71875 1.703125 
L 7.71875 11.625 
Q 12.109375 9.234375 16.796875 8.0625 
Q 21.484375 6.890625 26.703125 6.890625 
Q 35.15625 6.890625 40.078125 11.328125 
Q 45.015625 15.765625 45.015625 23.390625 
Q 45.015625 31 40.078125 35.4375 
Q 35.15625 39.890625 26.703125 39.890625 
Q 22.75 39.890625 18.8125 39.015625 
Q 14.890625 38.140625 10.796875 36.28125 
z
" id="DejaVuSans-35"/>
      </defs>
      <g transform="translate(385.827217 322.182437)scale(0.1 -0.1)">
       <use xlink:href="#DejaVuSans-35"/>
       <use x="63.623047" xlink:href="#DejaVuSans-30"/>
       <use x="127.246094" xlink:href="#DejaVuSans-30"/>
       <use x="190.869141" xlink:href="#DejaVuSans-30"/>
      </g>
     </g>
    </g>
    <g id="text_7">
     <!-- Iterations -->
     <defs>
      <path d="M 9.8125 72.90625 
L 19.671875 72.90625 
L 19.671875 0 
L 9.8125 0 
z
" id="DejaVuSans-49"/>
      <path d="M 18.3125 70.21875 
L 18.3125 54.6875 
L 36.8125 54.6875 
L 36.8125 47.703125 
L 18.3125 47.703125 
L 18.3125 18.015625 
Q 18.3125 11.328125 20.140625 9.421875 
Q 21.96875 7.515625 27.59375 7.515625 
L 36.8125 7.515625 
L 36.8125 0 
L 27.59375 0 
Q 17.1875 0 13.234375 3.875 
Q 9.28125 7.765625 9.28125 18.015625 
L 9.28125 47.703125 
L 2.6875 47.703125 
L 2.6875 54.6875 
L 9.28125 54.6875 
L 9.28125 70.21875 
z
" id="DejaVuSans-74"/>
      <path d="M 56.203125 29.59375 
L 56.203125 25.203125 
L 14.890625 25.203125 
Q 15.484375 15.921875 20.484375 11.0625 
Q 25.484375 6.203125 34.421875 6.203125 
Q 39.59375 6.203125 44.453125 7.46875 
Q 49.3125 8.734375 54.109375 11.28125 
L 54.109375 2.78125 
Q 49.265625 0.734375 44.1875 -0.34375 
Q 39.109375 -1.421875 33.890625 -1.421875 
Q 20.796875 -1.421875 13.15625 6.1875 
Q 5.515625 13.8125 5.515625 26.8125 
Q 5.515625 40.234375 12.765625 48.109375 
Q 20.015625 56 32.328125 56 
Q 43.359375 56 49.78125 48.890625 
Q 56.203125 41.796875 56.203125 29.59375 
z
M 47.21875 32.234375 
Q 47.125 39.59375 43.09375 43.984375 
Q 39.0625 48.390625 32.421875 48.390625 
Q 24.90625 48.390625 20.390625 44.140625 
Q 15.875 39.890625 15.1875 32.171875 
z
" id="DejaVuSans-65"/>
      <path d="M 41.109375 46.296875 
Q 39.59375 47.171875 37.8125 47.578125 
Q 36.03125 48 33.890625 48 
Q 26.265625 48 22.1875 43.046875 
Q 18.109375 38.09375 18.109375 28.8125 
L 18.109375 0 
L 9.078125 0 
L 9.078125 54.6875 
L 18.109375 54.6875 
L 18.109375 46.1875 
Q 20.953125 51.171875 25.484375 53.578125 
Q 30.03125 56 36.53125 56 
Q 37.453125 56 38.578125 55.875 
Q 39.703125 55.765625 41.0625 55.515625 
z
" id="DejaVuSans-72"/>
      <path d="M 34.28125 27.484375 
Q 23.390625 27.484375 19.1875 25 
Q 14.984375 22.515625 14.984375 16.5 
Q 14.984375 11.71875 18.140625 8.90625 
Q 21.296875 6.109375 26.703125 6.109375 
Q 34.1875 6.109375 38.703125 11.40625 
Q 43.21875 16.703125 43.21875 25.484375 
L 43.21875 27.484375 
z
M 52.203125 31.203125 
L 52.203125 0 
L 43.21875 0 
L 43.21875 8.296875 
Q 40.140625 3.328125 35.546875 0.953125 
Q 30.953125 -1.421875 24.3125 -1.421875 
Q 15.921875 -1.421875 10.953125 3.296875 
Q 6 8.015625 6 15.921875 
Q 6 25.140625 12.171875 29.828125 
Q 18.359375 34.515625 30.609375 34.515625 
L 43.21875 34.515625 
L 43.21875 35.40625 
Q 43.21875 41.609375 39.140625 45 
Q 35.0625 48.390625 27.6875 48.390625 
Q 23 48.390625 18.546875 47.265625 
Q 14.109375 46.140625 10.015625 43.890625 
L 10.015625 52.203125 
Q 14.9375 54.109375 19.578125 55.046875 
Q 24.21875 56 28.609375 56 
Q 40.484375 56 46.34375 49.84375 
Q 52.203125 43.703125 52.203125 31.203125 
z
" id="DejaVuSans-61"/>
      <path d="M 9.421875 54.6875 
L 18.40625 54.6875 
L 18.40625 0 
L 9.421875 0 
z
M 9.421875 75.984375 
L 18.40625 75.984375 
L 18.40625 64.59375 
L 9.421875 64.59375 
z
" id="DejaVuSans-69"/>
      <path d="M 30.609375 48.390625 
Q 23.390625 48.390625 19.1875 42.75 
Q 14.984375 37.109375 14.984375 27.296875 
Q 14.984375 17.484375 19.15625 11.84375 
Q 23.34375 6.203125 30.609375 6.203125 
Q 37.796875 6.203125 41.984375 11.859375 
Q 46.1875 17.53125 46.1875 27.296875 
Q 46.1875 37.015625 41.984375 42.703125 
Q 37.796875 48.390625 30.609375 48.390625 
z
M 30.609375 56 
Q 42.328125 56 49.015625 48.375 
Q 55.71875 40.765625 55.71875 27.296875 
Q 55.71875 13.875 49.015625 6.21875 
Q 42.328125 -1.421875 30.609375 -1.421875 
Q 18.84375 -1.421875 12.171875 6.21875 
Q 5.515625 13.875 5.515625 27.296875 
Q 5.515625 40.765625 12.171875 48.375 
Q 18.84375 56 30.609375 56 
z
" id="DejaVuSans-6f"/>
      <path d="M 54.890625 33.015625 
L 54.890625 0 
L 45.90625 0 
L 45.90625 32.71875 
Q 45.90625 40.484375 42.875 44.328125 
Q 39.84375 48.1875 33.796875 48.1875 
Q 26.515625 48.1875 22.3125 43.546875 
Q 18.109375 38.921875 18.109375 30.90625 
L 18.109375 0 
L 9.078125 0 
L 9.078125 54.6875 
L 18.109375 54.6875 
L 18.109375 46.1875 
Q 21.34375 51.125 25.703125 53.5625 
Q 30.078125 56 35.796875 56 
Q 45.21875 56 50.046875 50.171875 
Q 54.890625 44.34375 54.890625 33.015625 
z
" id="DejaVuSans-6e"/>
      <path d="M 44.28125 53.078125 
L 44.28125 44.578125 
Q 40.484375 46.53125 36.375 47.5 
Q 32.28125 48.484375 27.875 48.484375 
Q 21.1875 48.484375 17.84375 46.4375 
Q 14.5 44.390625 14.5 40.28125 
Q 14.5 37.15625 16.890625 35.375 
Q 19.28125 33.59375 26.515625 31.984375 
L 29.59375 31.296875 
Q 39.15625 29.25 43.1875 25.515625 
Q 47.21875 21.78125 47.21875 15.09375 
Q 47.21875 7.46875 41.1875 3.015625 
Q 35.15625 -1.421875 24.609375 -1.421875 
Q 20.21875 -1.421875 15.453125 -0.5625 
Q 10.6875 0.296875 5.421875 2 
L 5.421875 11.28125 
Q 10.40625 8.6875 15.234375 7.390625 
Q 20.0625 6.109375 24.8125 6.109375 
Q 31.15625 6.109375 34.5625 8.28125 
Q 37.984375 10.453125 37.984375 14.40625 
Q 37.984375 18.0625 35.515625 20.015625 
Q 33.0625 21.96875 24.703125 23.78125 
L 21.578125 24.515625 
Q 13.234375 26.265625 9.515625 29.90625 
Q 5.8125 33.546875 5.8125 39.890625 
Q 5.8125 47.609375 11.28125 51.796875 
Q 16.75 56 26.8125 56 
Q 31.78125 56 36.171875 55.265625 
Q 40.578125 54.546875 44.28125 53.078125 
z
" id="DejaVuSans-73"/>
     </defs>
     <g transform="translate(212.346719 335.860562)scale(0.1 -0.1)">
      <use xlink:href="#DejaVuSans-49"/>
      <use x="29.492188" xlink:href="#DejaVuSans-74"/>
      <use x="68.701172" xlink:href="#DejaVuSans-65"/>
      <use x="130.224609" xlink:href="#DejaVuSans-72"/>
      <use x="171.337891" xlink:href="#DejaVuSans-61"/>
      <use x="232.617188" xlink:href="#DejaVuSans-74"/>
      <use x="271.826172" xlink:href="#DejaVuSans-69"/>
      <use x="299.609375" xlink:href="#DejaVuSans-6f"/>
      <use x="360.791016" xlink:href="#DejaVuSans-6e"/>
      <use x="424.169922" xlink:href="#DejaVuSans-73"/>
     </g>
    </g>
   </g>
   <g id="matplotlib.axis_2">
    <g id="ytick_1">
     <g id="line2d_7">
      <defs>
       <path d="M 0 0 
L -3.5 0 
" id="m6ac505cb69" style="stroke:#000000;stroke-width:0.8;"/>
      </defs>
      <g>
       <use style="stroke:#000000;stroke-width:0.8;" x="57.6" xlink:href="#m6ac505cb69" y="283.682744"/>
      </g>
     </g>
     <g id="text_8">
      <!-- $\mathdefault{10^{-5}}$ -->
      <defs>
       <path d="M 10.59375 35.5 
L 73.1875 35.5 
L 73.1875 27.203125 
L 10.59375 27.203125 
z
" id="DejaVuSans-2212"/>
      </defs>
      <g transform="translate(27.1 287.481963)scale(0.1 -0.1)">
       <use transform="translate(0 0.684375)" xlink:href="#DejaVuSans-31"/>
       <use transform="translate(63.623047 0.684375)" xlink:href="#DejaVuSans-30"/>
       <use transform="translate(128.203125 38.965625)scale(0.7)" xlink:href="#DejaVuSans-2212"/>
       <use transform="translate(186.855469 38.965625)scale(0.7)" xlink:href="#DejaVuSans-35"/>
      </g>
     </g>
    </g>
    <g id="ytick_2">
     <g id="line2d_8">
      <g>
       <use style="stroke:#000000;stroke-width:0.8;" x="57.6" xlink:href="#m6ac505cb69" y="251.269948"/>
      </g>
     </g>
     <g id="text_9">
      <!-- $\mathdefault{10^{-4}}$ -->
      <g transform="translate(27.1 255.069167)scale(0.1 -0.1)">
       <use transform="translate(0 0.684375)" xlink:href="#DejaVuSans-31"/>
       <use transform="translate(63.623047 0.684375)" xlink:href="#DejaVuSans-30"/>
       <use transform="translate(128.203125 38.965625)scale(0.7)" xlink:href="#DejaVuSans-2212"/>
       <use transform="translate(186.855469 38.965625)scale(0.7)" xlink:href="#DejaVuSans-34"/>
      </g>
     </g>
    </g>
    <g id="ytick_3">
     <g id="line2d_9">
      <g>
       <use style="stroke:#000000;stroke-width:0.8;" x="57.6" xlink:href="#m6ac505cb69" y="218.857152"/>
      </g>
     </g>
     <g id="text_10">
      <!-- $\mathdefault{10^{-3}}$ -->
      <g transform="translate(27.1 222.656371)scale(0.1 -0.1)">
       <use transform="translate(0 0.765625)" xlink:href="#DejaVuSans-31"/>
       <use transform="translate(63.623047 0.765625)" xlink:href="#DejaVuSans-30"/>
       <use transform="translate(128.203125 39.046875)scale(0.7)" xlink:href="#DejaVuSans-2212"/>
       <use transform="translate(186.855469 39.046875)scale(0.7)" xlink:href="#DejaVuSans-33"/>
      </g>
     </g>
    </g>
    <g id="ytick_4">
     <g id="line2d_10">
      <g>
       <use style="stroke:#000000;stroke-width:0.8;" x="57.6" xlink:href="#m6ac505cb69" y="186.444357"/>
      </g>
     </g>
     <g id="text_11">
      <!-- $\mathdefault{10^{-2}}$ -->
      <g transform="translate(27.1 190.243575)scale(0.1 -0.1)">
       <use transform="translate(0 0.765625)" xlink:href="#DejaVuSans-31"/>
       <use transform="translate(63.623047 0.765625)" xlink:href="#DejaVuSans-30"/>
       <use transform="translate(128.203125 39.046875)scale(0.7)" xlink:href="#DejaVuSans-2212"/>
       <use transform="translate(186.855469 39.046875)scale(0.7)" xlink:href="#DejaVuSans-32"/>
      </g>
     </g>
    </g>
    <g id="ytick_5">
     <g id="line2d_11">
      <g>
       <use style="stroke:#000000;stroke-width:0.8;" x="57.6" xlink:href="#m6ac505cb69" y="154.031561"/>
      </g>
     </g>
     <g id="text_12">
      <!-- $\mathdefault{10^{-1}}$ -->
      <g transform="translate(27.1 157.83078)scale(0.1 -0.1)">
       <use transform="translate(0 0.684375)" xlink:href="#DejaVuSans-31"/>
       <use transform="translate(63.623047 0.684375)" xlink:href="#DejaVuSans-30"/>
       <use transform="translate(128.203125 38.965625)scale(0.7)" xlink:href="#DejaVuSans-2212"/>
       <use transform="translate(186.855469 38.965625)scale(0.7)" xlink:href="#DejaVuSans-31"/>
      </g>
     </g>
    </g>
    <g id="ytick_6">
     <g id="line2d_12">
      <g>
       <use style="stroke:#000000;stroke-width:0.8;" x="57.6" xlink:href="#m6ac505cb69" y="121.618765"/>
      </g>
     </g>
     <g id="text_13">
      <!-- $\mathdefault{10^{0}}$ -->
      <g transform="translate(33 125.417984)scale(0.1 -0.1)">
       <use transform="translate(0 0.765625)" xlink:href="#DejaVuSans-31"/>
       <use transform="translate(63.623047 0.765625)" xlink:href="#DejaVuSans-30"/>
       <use transform="translate(128.203125 39.046875)scale(0.7)" xlink:href="#DejaVuSans-30"/>
      </g>
     </g>
    </g>
    <g id="ytick_7">
     <g id="line2d_13">
      <g>
       <use style="stroke:#000000;stroke-width:0.8;" x="57.6" xlink:href="#m6ac505cb69" y="89.205969"/>
      </g>
     </g>
     <g id="text_14">
      <!-- $\mathdefault{10^{1}}$ -->
      <g transform="translate(33 93.005188)scale(0.1 -0.1)">
       <use transform="translate(0 0.684375)" xlink:href="#DejaVuSans-31"/>
       <use transform="translate(63.623047 0.684375)" xlink:href="#DejaVuSans-30"/>
       <use transform="translate(128.203125 38.965625)scale(0.7)" xlink:href="#DejaVuSans-31"/>
      </g>
     </g>
    </g>
    <g id="ytick_8">
     <g id="line2d_14">
      <g>
       <use style="stroke:#000000;stroke-width:0.8;" x="57.6" xlink:href="#m6ac505cb69" y="56.793173"/>
      </g>
     </g>
     <g id="text_15">
      <!-- $\mathdefault{10^{2}}$ -->
      <g transform="translate(33 60.592392)scale(0.1 -0.1)">
       <use transform="translate(0 0.765625)" xlink:href="#DejaVuSans-31"/>
       <use transform="translate(63.623047 0.765625)" xlink:href="#DejaVuSans-30"/>
       <use transform="translate(128.203125 39.046875)scale(0.7)" xlink:href="#DejaVuSans-32"/>
      </g>
     </g>
    </g>
    <g id="ytick_9">
     <g id="line2d_15">
      <defs>
       <path d="M 0 0 
L -2 0 
" id="m6780c50a14" style="stroke:#000000;stroke-width:0.6;"/>
      </defs>
      <g>
       <use style="stroke:#000000;stroke-width:0.6;" x="57.6" xlink:href="#m6780c50a14" y="306.338316"/>
      </g>
     </g>
    </g>
    <g id="ytick_10">
     <g id="line2d_16">
      <g>
       <use style="stroke:#000000;stroke-width:0.6;" x="57.6" xlink:href="#m6780c50a14" y="300.630706"/>
      </g>
     </g>
    </g>
    <g id="ytick_11">
     <g id="line2d_17">
      <g>
       <use style="stroke:#000000;stroke-width:0.6;" x="57.6" xlink:href="#m6780c50a14" y="296.581092"/>
      </g>
     </g>
    </g>
    <g id="ytick_12">
     <g id="line2d_18">
      <g>
       <use style="stroke:#000000;stroke-width:0.6;" x="57.6" xlink:href="#m6780c50a14" y="293.439968"/>
      </g>
     </g>
    </g>
    <g id="ytick_13">
     <g id="line2d_19">
      <g>
       <use style="stroke:#000000;stroke-width:0.6;" x="57.6" xlink:href="#m6780c50a14" y="290.873482"/>
      </g>
     </g>
    </g>
    <g id="ytick_14">
     <g id="line2d_20">
      <g>
       <use style="stroke:#000000;stroke-width:0.6;" x="57.6" xlink:href="#m6780c50a14" y="288.70355"/>
      </g>
     </g>
    </g>
    <g id="ytick_15">
     <g id="line2d_21">
      <g>
       <use style="stroke:#000000;stroke-width:0.6;" x="57.6" xlink:href="#m6780c50a14" y="286.823869"/>
      </g>
     </g>
    </g>
    <g id="ytick_16">
     <g id="line2d_22">
      <g>
       <use style="stroke:#000000;stroke-width:0.6;" x="57.6" xlink:href="#m6780c50a14" y="285.165872"/>
      </g>
     </g>
    </g>
    <g id="ytick_17">
     <g id="line2d_23">
      <g>
       <use style="stroke:#000000;stroke-width:0.6;" x="57.6" xlink:href="#m6780c50a14" y="273.92552"/>
      </g>
     </g>
    </g>
    <g id="ytick_18">
     <g id="line2d_24">
      <g>
       <use style="stroke:#000000;stroke-width:0.6;" x="57.6" xlink:href="#m6780c50a14" y="268.21791"/>
      </g>
     </g>
    </g>
    <g id="ytick_19">
     <g id="line2d_25">
      <g>
       <use style="stroke:#000000;stroke-width:0.6;" x="57.6" xlink:href="#m6780c50a14" y="264.168297"/>
      </g>
     </g>
    </g>
    <g id="ytick_20">
     <g id="line2d_26">
      <g>
       <use style="stroke:#000000;stroke-width:0.6;" x="57.6" xlink:href="#m6780c50a14" y="261.027172"/>
      </g>
     </g>
    </g>
    <g id="ytick_21">
     <g id="line2d_27">
      <g>
       <use style="stroke:#000000;stroke-width:0.6;" x="57.6" xlink:href="#m6780c50a14" y="258.460687"/>
      </g>
     </g>
    </g>
    <g id="ytick_22">
     <g id="line2d_28">
      <g>
       <use style="stroke:#000000;stroke-width:0.6;" x="57.6" xlink:href="#m6780c50a14" y="256.290754"/>
      </g>
     </g>
    </g>
    <g id="ytick_23">
     <g id="line2d_29">
      <g>
       <use style="stroke:#000000;stroke-width:0.6;" x="57.6" xlink:href="#m6780c50a14" y="254.411073"/>
      </g>
     </g>
    </g>
    <g id="ytick_24">
     <g id="line2d_30">
      <g>
       <use style="stroke:#000000;stroke-width:0.6;" x="57.6" xlink:href="#m6780c50a14" y="252.753077"/>
      </g>
     </g>
    </g>
    <g id="ytick_25">
     <g id="line2d_31">
      <g>
       <use style="stroke:#000000;stroke-width:0.6;" x="57.6" xlink:href="#m6780c50a14" y="241.512725"/>
      </g>
     </g>
    </g>
    <g id="ytick_26">
     <g id="line2d_32">
      <g>
       <use style="stroke:#000000;stroke-width:0.6;" x="57.6" xlink:href="#m6780c50a14" y="235.805114"/>
      </g>
     </g>
    </g>
    <g id="ytick_27">
     <g id="line2d_33">
      <g>
       <use style="stroke:#000000;stroke-width:0.6;" x="57.6" xlink:href="#m6780c50a14" y="231.755501"/>
      </g>
     </g>
    </g>
    <g id="ytick_28">
     <g id="line2d_34">
      <g>
       <use style="stroke:#000000;stroke-width:0.6;" x="57.6" xlink:href="#m6780c50a14" y="228.614376"/>
      </g>
     </g>
    </g>
    <g id="ytick_29">
     <g id="line2d_35">
      <g>
       <use style="stroke:#000000;stroke-width:0.6;" x="57.6" xlink:href="#m6780c50a14" y="226.047891"/>
      </g>
     </g>
    </g>
    <g id="ytick_30">
     <g id="line2d_36">
      <g>
       <use style="stroke:#000000;stroke-width:0.6;" x="57.6" xlink:href="#m6780c50a14" y="223.877958"/>
      </g>
     </g>
    </g>
    <g id="ytick_31">
     <g id="line2d_37">
      <g>
       <use style="stroke:#000000;stroke-width:0.6;" x="57.6" xlink:href="#m6780c50a14" y="221.998277"/>
      </g>
     </g>
    </g>
    <g id="ytick_32">
     <g id="line2d_38">
      <g>
       <use style="stroke:#000000;stroke-width:0.6;" x="57.6" xlink:href="#m6780c50a14" y="220.340281"/>
      </g>
     </g>
    </g>
    <g id="ytick_33">
     <g id="line2d_39">
      <g>
       <use style="stroke:#000000;stroke-width:0.6;" x="57.6" xlink:href="#m6780c50a14" y="209.099929"/>
      </g>
     </g>
    </g>
    <g id="ytick_34">
     <g id="line2d_40">
      <g>
       <use style="stroke:#000000;stroke-width:0.6;" x="57.6" xlink:href="#m6780c50a14" y="203.392319"/>
      </g>
     </g>
    </g>
    <g id="ytick_35">
     <g id="line2d_41">
      <g>
       <use style="stroke:#000000;stroke-width:0.6;" x="57.6" xlink:href="#m6780c50a14" y="199.342705"/>
      </g>
     </g>
    </g>
    <g id="ytick_36">
     <g id="line2d_42">
      <g>
       <use style="stroke:#000000;stroke-width:0.6;" x="57.6" xlink:href="#m6780c50a14" y="196.20158"/>
      </g>
     </g>
    </g>
    <g id="ytick_37">
     <g id="line2d_43">
      <g>
       <use style="stroke:#000000;stroke-width:0.6;" x="57.6" xlink:href="#m6780c50a14" y="193.635095"/>
      </g>
     </g>
    </g>
    <g id="ytick_38">
     <g id="line2d_44">
      <g>
       <use style="stroke:#000000;stroke-width:0.6;" x="57.6" xlink:href="#m6780c50a14" y="191.465162"/>
      </g>
     </g>
    </g>
    <g id="ytick_39">
     <g id="line2d_45">
      <g>
       <use style="stroke:#000000;stroke-width:0.6;" x="57.6" xlink:href="#m6780c50a14" y="189.585481"/>
      </g>
     </g>
    </g>
    <g id="ytick_40">
     <g id="line2d_46">
      <g>
       <use style="stroke:#000000;stroke-width:0.6;" x="57.6" xlink:href="#m6780c50a14" y="187.927485"/>
      </g>
     </g>
    </g>
    <g id="ytick_41">
     <g id="line2d_47">
      <g>
       <use style="stroke:#000000;stroke-width:0.6;" x="57.6" xlink:href="#m6780c50a14" y="176.687133"/>
      </g>
     </g>
    </g>
    <g id="ytick_42">
     <g id="line2d_48">
      <g>
       <use style="stroke:#000000;stroke-width:0.6;" x="57.6" xlink:href="#m6780c50a14" y="170.979523"/>
      </g>
     </g>
    </g>
    <g id="ytick_43">
     <g id="line2d_49">
      <g>
       <use style="stroke:#000000;stroke-width:0.6;" x="57.6" xlink:href="#m6780c50a14" y="166.929909"/>
      </g>
     </g>
    </g>
    <g id="ytick_44">
     <g id="line2d_50">
      <g>
       <use style="stroke:#000000;stroke-width:0.6;" x="57.6" xlink:href="#m6780c50a14" y="163.788785"/>
      </g>
     </g>
    </g>
    <g id="ytick_45">
     <g id="line2d_51">
      <g>
       <use style="stroke:#000000;stroke-width:0.6;" x="57.6" xlink:href="#m6780c50a14" y="161.222299"/>
      </g>
     </g>
    </g>
    <g id="ytick_46">
     <g id="line2d_52">
      <g>
       <use style="stroke:#000000;stroke-width:0.6;" x="57.6" xlink:href="#m6780c50a14" y="159.052366"/>
      </g>
     </g>
    </g>
    <g id="ytick_47">
     <g id="line2d_53">
      <g>
       <use style="stroke:#000000;stroke-width:0.6;" x="57.6" xlink:href="#m6780c50a14" y="157.172685"/>
      </g>
     </g>
    </g>
    <g id="ytick_48">
     <g id="line2d_54">
      <g>
       <use style="stroke:#000000;stroke-width:0.6;" x="57.6" xlink:href="#m6780c50a14" y="155.514689"/>
      </g>
     </g>
    </g>
    <g id="ytick_49">
     <g id="line2d_55">
      <g>
       <use style="stroke:#000000;stroke-width:0.6;" x="57.6" xlink:href="#m6780c50a14" y="144.274337"/>
      </g>
     </g>
    </g>
    <g id="ytick_50">
     <g id="line2d_56">
      <g>
       <use style="stroke:#000000;stroke-width:0.6;" x="57.6" xlink:href="#m6780c50a14" y="138.566727"/>
      </g>
     </g>
    </g>
    <g id="ytick_51">
     <g id="line2d_57">
      <g>
       <use style="stroke:#000000;stroke-width:0.6;" x="57.6" xlink:href="#m6780c50a14" y="134.517113"/>
      </g>
     </g>
    </g>
    <g id="ytick_52">
     <g id="line2d_58">
      <g>
       <use style="stroke:#000000;stroke-width:0.6;" x="57.6" xlink:href="#m6780c50a14" y="131.375989"/>
      </g>
     </g>
    </g>
    <g id="ytick_53">
     <g id="line2d_59">
      <g>
       <use style="stroke:#000000;stroke-width:0.6;" x="57.6" xlink:href="#m6780c50a14" y="128.809503"/>
      </g>
     </g>
    </g>
    <g id="ytick_54">
     <g id="line2d_60">
      <g>
       <use style="stroke:#000000;stroke-width:0.6;" x="57.6" xlink:href="#m6780c50a14" y="126.639571"/>
      </g>
     </g>
    </g>
    <g id="ytick_55">
     <g id="line2d_61">
      <g>
       <use style="stroke:#000000;stroke-width:0.6;" x="57.6" xlink:href="#m6780c50a14" y="124.75989"/>
      </g>
     </g>
    </g>
    <g id="ytick_56">
     <g id="line2d_62">
      <g>
       <use style="stroke:#000000;stroke-width:0.6;" x="57.6" xlink:href="#m6780c50a14" y="123.101893"/>
      </g>
     </g>
    </g>
    <g id="ytick_57">
     <g id="line2d_63">
      <g>
       <use style="stroke:#000000;stroke-width:0.6;" x="57.6" xlink:href="#m6780c50a14" y="111.861541"/>
      </g>
     </g>
    </g>
    <g id="ytick_58">
     <g id="line2d_64">
      <g>
       <use style="stroke:#000000;stroke-width:0.6;" x="57.6" xlink:href="#m6780c50a14" y="106.153931"/>
      </g>
     </g>
    </g>
    <g id="ytick_59">
     <g id="line2d_65">
      <g>
       <use style="stroke:#000000;stroke-width:0.6;" x="57.6" xlink:href="#m6780c50a14" y="102.104317"/>
      </g>
     </g>
    </g>
    <g id="ytick_60">
     <g id="line2d_66">
      <g>
       <use style="stroke:#000000;stroke-width:0.6;" x="57.6" xlink:href="#m6780c50a14" y="98.963193"/>
      </g>
     </g>
    </g>
    <g id="ytick_61">
     <g id="line2d_67">
      <g>
       <use style="stroke:#000000;stroke-width:0.6;" x="57.6" xlink:href="#m6780c50a14" y="96.396707"/>
      </g>
     </g>
    </g>
    <g id="ytick_62">
     <g id="line2d_68">
      <g>
       <use style="stroke:#000000;stroke-width:0.6;" x="57.6" xlink:href="#m6780c50a14" y="94.226775"/>
      </g>
     </g>
    </g>
    <g id="ytick_63">
     <g id="line2d_69">
      <g>
       <use style="stroke:#000000;stroke-width:0.6;" x="57.6" xlink:href="#m6780c50a14" y="92.347094"/>
      </g>
     </g>
    </g>
    <g id="ytick_64">
     <g id="line2d_70">
      <g>
       <use style="stroke:#000000;stroke-width:0.6;" x="57.6" xlink:href="#m6780c50a14" y="90.689097"/>
      </g>
     </g>
    </g>
    <g id="ytick_65">
     <g id="line2d_71">
      <g>
       <use style="stroke:#000000;stroke-width:0.6;" x="57.6" xlink:href="#m6780c50a14" y="79.448745"/>
      </g>
     </g>
    </g>
    <g id="ytick_66">
     <g id="line2d_72">
      <g>
       <use style="stroke:#000000;stroke-width:0.6;" x="57.6" xlink:href="#m6780c50a14" y="73.741135"/>
      </g>
     </g>
    </g>
    <g id="ytick_67">
     <g id="line2d_73">
      <g>
       <use style="stroke:#000000;stroke-width:0.6;" x="57.6" xlink:href="#m6780c50a14" y="69.691522"/>
      </g>
     </g>
    </g>
    <g id="ytick_68">
     <g id="line2d_74">
      <g>
       <use style="stroke:#000000;stroke-width:0.6;" x="57.6" xlink:href="#m6780c50a14" y="66.550397"/>
      </g>
     </g>
    </g>
    <g id="ytick_69">
     <g id="line2d_75">
      <g>
       <use style="stroke:#000000;stroke-width:0.6;" x="57.6" xlink:href="#m6780c50a14" y="63.983912"/>
      </g>
     </g>
    </g>
    <g id="ytick_70">
     <g id="line2d_76">
      <g>
       <use style="stroke:#000000;stroke-width:0.6;" x="57.6" xlink:href="#m6780c50a14" y="61.813979"/>
      </g>
     </g>
    </g>
    <g id="ytick_71">
     <g id="line2d_77">
      <g>
       <use style="stroke:#000000;stroke-width:0.6;" x="57.6" xlink:href="#m6780c50a14" y="59.934298"/>
      </g>
     </g>
    </g>
    <g id="ytick_72">
     <g id="line2d_78">
      <g>
       <use style="stroke:#000000;stroke-width:0.6;" x="57.6" xlink:href="#m6780c50a14" y="58.276302"/>
      </g>
     </g>
    </g>
    <g id="ytick_73">
     <g id="line2d_79">
      <g>
       <use style="stroke:#000000;stroke-width:0.6;" x="57.6" xlink:href="#m6780c50a14" y="47.03595"/>
      </g>
     </g>
    </g>
    <g id="ytick_74">
     <g id="line2d_80">
      <g>
       <use style="stroke:#000000;stroke-width:0.6;" x="57.6" xlink:href="#m6780c50a14" y="41.32834"/>
      </g>
     </g>
    </g>
    <g id="text_16">
     <!-- Distance to Optimum -->
     <defs>
      <path d="M 19.671875 64.796875 
L 19.671875 8.109375 
L 31.59375 8.109375 
Q 46.6875 8.109375 53.6875 14.9375 
Q 60.6875 21.78125 60.6875 36.53125 
Q 60.6875 51.171875 53.6875 57.984375 
Q 46.6875 64.796875 31.59375 64.796875 
z
M 9.8125 72.90625 
L 30.078125 72.90625 
Q 51.265625 72.90625 61.171875 64.09375 
Q 71.09375 55.28125 71.09375 36.53125 
Q 71.09375 17.671875 61.125 8.828125 
Q 51.171875 0 30.078125 0 
L 9.8125 0 
z
" id="DejaVuSans-44"/>
      <path d="M 48.78125 52.59375 
L 48.78125 44.1875 
Q 44.96875 46.296875 41.140625 47.34375 
Q 37.3125 48.390625 33.40625 48.390625 
Q 24.65625 48.390625 19.8125 42.84375 
Q 14.984375 37.3125 14.984375 27.296875 
Q 14.984375 17.28125 19.8125 11.734375 
Q 24.65625 6.203125 33.40625 6.203125 
Q 37.3125 6.203125 41.140625 7.25 
Q 44.96875 8.296875 48.78125 10.40625 
L 48.78125 2.09375 
Q 45.015625 0.34375 40.984375 -0.53125 
Q 36.96875 -1.421875 32.421875 -1.421875 
Q 20.0625 -1.421875 12.78125 6.34375 
Q 5.515625 14.109375 5.515625 27.296875 
Q 5.515625 40.671875 12.859375 48.328125 
Q 20.21875 56 33.015625 56 
Q 37.15625 56 41.109375 55.140625 
Q 45.0625 54.296875 48.78125 52.59375 
z
" id="DejaVuSans-63"/>
      <path id="DejaVuSans-20"/>
      <path d="M 39.40625 66.21875 
Q 28.65625 66.21875 22.328125 58.203125 
Q 16.015625 50.203125 16.015625 36.375 
Q 16.015625 22.609375 22.328125 14.59375 
Q 28.65625 6.59375 39.40625 6.59375 
Q 50.140625 6.59375 56.421875 14.59375 
Q 62.703125 22.609375 62.703125 36.375 
Q 62.703125 50.203125 56.421875 58.203125 
Q 50.140625 66.21875 39.40625 66.21875 
z
M 39.40625 74.21875 
Q 54.734375 74.21875 63.90625 63.9375 
Q 73.09375 53.65625 73.09375 36.375 
Q 73.09375 19.140625 63.90625 8.859375 
Q 54.734375 -1.421875 39.40625 -1.421875 
Q 24.03125 -1.421875 14.8125 8.828125 
Q 5.609375 19.09375 5.609375 36.375 
Q 5.609375 53.65625 14.8125 63.9375 
Q 24.03125 74.21875 39.40625 74.21875 
z
" id="DejaVuSans-4f"/>
      <path d="M 18.109375 8.203125 
L 18.109375 -20.796875 
L 9.078125 -20.796875 
L 9.078125 54.6875 
L 18.109375 54.6875 
L 18.109375 46.390625 
Q 20.953125 51.265625 25.265625 53.625 
Q 29.59375 56 35.59375 56 
Q 45.5625 56 51.78125 48.09375 
Q 58.015625 40.1875 58.015625 27.296875 
Q 58.015625 14.40625 51.78125 6.484375 
Q 45.5625 -1.421875 35.59375 -1.421875 
Q 29.59375 -1.421875 25.265625 0.953125 
Q 20.953125 3.328125 18.109375 8.203125 
z
M 48.6875 27.296875 
Q 48.6875 37.203125 44.609375 42.84375 
Q 40.53125 48.484375 33.40625 48.484375 
Q 26.265625 48.484375 22.1875 42.84375 
Q 18.109375 37.203125 18.109375 27.296875 
Q 18.109375 17.390625 22.1875 11.75 
Q 26.265625 6.109375 33.40625 6.109375 
Q 40.53125 6.109375 44.609375 11.75 
Q 48.6875 17.390625 48.6875 27.296875 
z
" id="DejaVuSans-70"/>
      <path d="M 52 44.1875 
Q 55.375 50.25 60.0625 53.125 
Q 64.75 56 71.09375 56 
Q 79.640625 56 84.28125 50.015625 
Q 88.921875 44.046875 88.921875 33.015625 
L 88.921875 0 
L 79.890625 0 
L 79.890625 32.71875 
Q 79.890625 40.578125 77.09375 44.375 
Q 74.3125 48.1875 68.609375 48.1875 
Q 61.625 48.1875 57.5625 43.546875 
Q 53.515625 38.921875 53.515625 30.90625 
L 53.515625 0 
L 44.484375 0 
L 44.484375 32.71875 
Q 44.484375 40.625 41.703125 44.40625 
Q 38.921875 48.1875 33.109375 48.1875 
Q 26.21875 48.1875 22.15625 43.53125 
Q 18.109375 38.875 18.109375 30.90625 
L 18.109375 0 
L 9.078125 0 
L 9.078125 54.6875 
L 18.109375 54.6875 
L 18.109375 46.1875 
Q 21.1875 51.21875 25.484375 53.609375 
Q 29.78125 56 35.6875 56 
Q 41.65625 56 45.828125 52.96875 
Q 50 49.953125 52 44.1875 
z
" id="DejaVuSans-6d"/>
      <path d="M 8.5 21.578125 
L 8.5 54.6875 
L 17.484375 54.6875 
L 17.484375 21.921875 
Q 17.484375 14.15625 20.5 10.265625 
Q 23.53125 6.390625 29.59375 6.390625 
Q 36.859375 6.390625 41.078125 11.03125 
Q 45.3125 15.671875 45.3125 23.6875 
L 45.3125 54.6875 
L 54.296875 54.6875 
L 54.296875 0 
L 45.3125 0 
L 45.3125 8.40625 
Q 42.046875 3.421875 37.71875 1 
Q 33.40625 -1.421875 27.6875 -1.421875 
Q 18.265625 -1.421875 13.375 4.4375 
Q 8.5 10.296875 8.5 21.578125 
z
M 31.109375 56 
z
" id="DejaVuSans-75"/>
     </defs>
     <g transform="translate(21.020312 227.956906)rotate(-90)scale(0.1 -0.1)">
      <use xlink:href="#DejaVuSans-44"/>
      <use x="77.001953" xlink:href="#DejaVuSans-69"/>
      <use x="104.785156" xlink:href="#DejaVuSans-73"/>
      <use x="156.884766" xlink:href="#DejaVuSans-74"/>
      <use x="196.09375" xlink:href="#DejaVuSans-61"/>
      <use x="257.373047" xlink:href="#DejaVuSans-6e"/>
      <use x="320.751953" xlink:href="#DejaVuSans-63"/>
      <use x="375.732422" xlink:href="#DejaVuSans-65"/>
      <use x="437.255859" xlink:href="#DejaVuSans-20"/>
      <use x="469.042969" xlink:href="#DejaVuSans-74"/>
      <use x="508.251953" xlink:href="#DejaVuSans-6f"/>
      <use x="569.433594" xlink:href="#DejaVuSans-20"/>
      <use x="601.220703" xlink:href="#DejaVuSans-4f"/>
      <use x="679.931641" xlink:href="#DejaVuSans-70"/>
      <use x="743.408203" xlink:href="#DejaVuSans-74"/>
      <use x="782.617188" xlink:href="#DejaVuSans-69"/>
      <use x="810.400391" xlink:href="#DejaVuSans-6d"/>
      <use x="907.8125" xlink:href="#DejaVuSans-75"/>
      <use x="971.191406" xlink:href="#DejaVuSans-6d"/>
     </g>
    </g>
   </g>
   <g id="line2d_81">
    <path clip-path="url(#p78c8a78f2b)" d="M 73.832727 53.568 
L 74.222391 55.142268 
L 75.326437 59.733135 
L 75.391381 57.814171 
L 75.456325 58.155951 
L 75.586213 58.630241 
L 76.04082 60.448277 
L 76.105764 60.047121 
L 76.625315 63.60152 
L 76.690259 63.66947 
L 77.274754 67.848005 
L 77.339698 67.257669 
L 77.469586 68.456896 
L 77.534529 68.218086 
L 77.664417 69.546037 
L 77.729361 70.459738 
L 77.794305 70.030464 
L 77.859249 69.528299 
L 77.924193 70.103582 
L 77.989137 69.331695 
L 78.054081 69.70616 
L 78.248912 71.556565 
L 78.313856 70.882357 
L 78.3788 71.051269 
L 78.638576 74.193469 
L 78.963295 78.440425 
L 79.028239 79.50695 
L 79.093183 77.864706 
L 79.158127 78.045107 
L 79.223071 78.045107 
L 79.352959 78.520264 
L 79.417902 78.215536 
L 79.482846 81.091723 
L 79.54779 80.575327 
L 79.677678 79.610042 
L 79.742622 80.309658 
L 79.807566 79.068498 
L 79.87251 79.282336 
L 79.937454 81.161374 
L 80.132285 75.519362 
L 80.392061 79.14919 
L 80.521949 82.304432 
L 80.586893 88.318019 
L 80.651837 81.672614 
L 80.71678 83.227854 
L 80.781724 85.650679 
L 80.846668 78.445664 
L 80.911612 79.842181 
L 81.171388 84.612703 
L 81.236332 79.063786 
L 81.301276 79.222806 
L 81.496107 82.347492 
L 81.561051 77.121966 
L 81.625995 77.575608 
L 81.820827 80.344116 
L 81.885771 69.260437 
L 81.950715 70.390113 
L 82.015658 69.836087 
L 82.080602 70.366602 
L 82.145546 70.228535 
L 82.340378 71.202066 
L 82.405322 70.741767 
L 82.53521 72.531366 
L 82.600153 69.495178 
L 82.665097 70.225078 
L 82.924873 72.873959 
L 83.314536 78.090329 
L 83.37948 78.220934 
L 83.444424 78.695346 
L 83.769144 86.290299 
L 83.834088 81.006278 
L 83.899031 83.212111 
L 83.963975 83.493651 
L 84.028919 80.965203 
L 84.223751 91.380273 
L 84.353639 84.378696 
L 84.418583 85.571243 
L 84.483527 82.038624 
L 84.54847 82.077233 
L 84.678358 87.749988 
L 84.743302 86.432832 
L 84.808246 85.525779 
L 85.068022 88.90175 
L 85.132966 86.769462 
L 85.262853 91.469278 
L 85.522629 81.267845 
L 85.587573 81.22669 
L 85.847348 78.821863 
L 85.912292 79.036838 
L 85.977236 79.698147 
L 86.301956 73.85153 
L 86.3669 75.332718 
L 86.431843 75.142383 
L 86.561731 73.341174 
L 86.756563 80.774522 
L 87.53589 84.113132 
L 87.600834 83.930683 
L 88.055441 85.500858 
L 88.510048 87.753332 
L 88.574992 87.717662 
L 88.70488 88.922216 
L 88.769824 88.511002 
L 89.289375 91.590866 
L 89.549151 92.723716 
L 89.614094 91.890274 
L 89.679038 92.256289 
L 89.938814 94.948275 
L 90.003758 94.308333 
L 90.068702 91.968202 
L 90.133646 92.382663 
L 90.718141 99.632064 
L 90.783085 99.17596 
L 91.107804 103.934724 
L 91.172748 100.633467 
L 91.237692 101.24636 
L 91.302636 100.516057 
L 91.36758 101.845992 
L 91.432524 100.103937 
L 91.497467 100.993595 
L 91.757243 107.005264 
L 91.887131 110.682245 
L 91.952075 105.210438 
L 92.017019 106.601378 
L 92.081963 107.920798 
L 92.146906 105.245557 
L 92.21185 106.651223 
L 92.471626 111.792634 
L 92.601514 107.444043 
L 92.796345 110.262291 
L 92.861289 110.018774 
L 92.926233 116.115934 
L 92.991177 115.031721 
L 93.056121 114.877268 
L 93.121065 105.167229 
L 93.186009 106.398094 
L 93.315897 109.52927 
L 93.380841 108.997449 
L 93.445784 107.304413 
L 93.510728 101.235147 
L 93.575672 102.246775 
L 93.640616 100.804413 
L 93.70556 101.605441 
L 93.770504 101.687273 
L 93.835448 100.623084 
L 93.900392 100.720322 
L 93.965336 101.846567 
L 94.03028 100.747971 
L 94.160167 96.922697 
L 94.679718 101.978228 
L 94.809606 105.12605 
L 94.87455 103.103707 
L 94.939494 104.364897 
L 95.19927 109.762779 
L 95.264214 104.970307 
L 95.329157 106.176428 
L 95.394101 106.850319 
L 95.523989 110.030617 
L 95.588933 107.631957 
L 95.653877 107.865977 
L 95.718821 107.519943 
L 95.848709 108.44309 
L 95.978596 104.996876 
L 96.238372 119.761098 
L 96.303316 119.154768 
L 96.433204 115.443081 
L 96.498148 117.411722 
L 96.628035 109.037915 
L 96.757923 112.404326 
L 96.887811 111.544598 
L 96.952755 116.569101 
L 97.017699 115.285149 
L 97.212531 108.036961 
L 97.342418 111.546596 
L 97.407362 111.597884 
L 97.602194 105.693085 
L 97.667138 115.199053 
L 97.732082 110.817791 
L 97.797026 112.813433 
L 97.926913 107.322914 
L 98.056801 107.380235 
L 98.316577 106.521545 
L 98.381521 104.668108 
L 98.446465 107.99635 
L 98.511408 106.394839 
L 98.836128 101.83656 
L 98.901072 101.687558 
L 98.966016 102.706365 
L 99.290735 98.21758 
L 99.355679 97.70085 
L 99.550511 104.035484 
L 99.680399 100.303055 
L 99.810286 103.46817 
L 100.784445 107.572503 
L 100.979277 108.194998 
L 101.04422 108.084932 
L 101.758603 111.693386 
L 101.823547 111.808518 
L 101.888491 111.491275 
L 102.343098 114.570953 
L 102.408042 114.31599 
L 102.602874 115.312893 
L 102.667818 115.195988 
L 102.927594 118.284517 
L 102.992537 118.087461 
L 103.057481 116.711426 
L 103.122425 116.832794 
L 103.252313 118.073217 
L 103.317257 117.634036 
L 103.447145 118.745916 
L 103.512089 118.05564 
L 103.70692 119.773757 
L 103.771864 119.42798 
L 104.096584 122.65005 
L 104.161528 121.826437 
L 104.616135 128.762661 
L 104.681079 127.457362 
L 105.20063 133.939086 
L 105.265574 133.208329 
L 105.395462 134.937644 
L 105.460406 132.262116 
L 105.525349 132.560737 
L 105.590293 132.613716 
L 105.785125 129.089957 
L 105.915013 130.622138 
L 106.044901 126.95526 
L 106.304676 134.192843 
L 106.629396 122.169649 
L 106.69434 122.701337 
L 106.759283 122.340138 
L 106.889171 118.77545 
L 107.084003 117.33717 
L 107.343779 121.042941 
L 107.53861 118.988866 
L 107.798386 122.748401 
L 107.86333 122.388793 
L 107.993218 122.904854 
L 108.123105 125.22027 
L 108.188049 124.85271 
L 108.382881 122.203933 
L 108.837488 130.854703 
L 108.902432 126.728534 
L 108.967376 129.138837 
L 109.03232 130.471624 
L 109.097264 129.753465 
L 109.162208 129.98205 
L 109.421983 141.19529 
L 109.486927 138.71144 
L 109.616815 126.888114 
L 109.746703 128.792004 
L 109.811647 127.6967 
L 109.941534 131.383489 
L 110.006478 130.740983 
L 110.20131 135.24201 
L 110.266254 133.340054 
L 110.590973 143.405752 
L 110.655917 140.017959 
L 110.720861 142.350028 
L 110.915693 150.527578 
L 111.110525 142.879485 
L 111.175469 144.867809 
L 111.435244 133.197729 
L 111.500188 133.658802 
L 111.565132 135.15778 
L 111.630076 133.048264 
L 111.69502 133.095283 
L 111.824908 134.391102 
L 111.954795 138.159766 
L 112.279515 130.057206 
L 112.344459 130.06517 
L 112.409403 132.660011 
L 112.474347 131.112011 
L 112.53929 129.978366 
L 112.734122 135.67085 
L 112.86401 136.200792 
L 113.188729 137.662024 
L 113.513449 138.791195 
L 113.578393 138.858861 
L 114.162888 141.586223 
L 114.35772 142.074666 
L 114.682439 143.727619 
L 114.747383 143.021257 
L 114.942215 144.236901 
L 115.20199 145.906436 
L 115.331878 147.190716 
L 115.396822 147.001981 
L 115.461766 147.428788 
L 115.52671 147.113315 
L 115.916373 149.37938 
L 115.981317 149.507948 
L 116.046261 147.88492 
L 116.111205 148.560499 
L 116.630756 153.768694 
L 116.6957 153.958407 
L 116.825588 152.102177 
L 116.890532 151.938704 
L 116.955475 151.994442 
L 117.215251 154.116628 
L 117.280195 153.558035 
L 117.345139 154.034149 
L 117.410083 150.370623 
L 117.475027 150.855904 
L 117.929634 155.44877 
L 117.994578 155.041702 
L 118.124466 155.618454 
L 118.18941 155.531537 
L 118.579073 159.926032 
L 118.708961 159.596658 
L 118.903792 157.102682 
L 118.968736 156.950941 
L 119.03368 158.543614 
L 119.163568 152.522872 
L 119.553231 156.056673 
L 119.618175 154.664 
L 119.748063 156.887151 
L 119.813007 156.409879 
L 120.007839 158.610213 
L 120.137726 154.11415 
L 120.20267 154.289676 
L 120.267614 155.310559 
L 120.332558 153.42553 
L 120.397502 153.961805 
L 120.52739 154.504448 
L 120.657278 156.103698 
L 120.722222 155.20509 
L 120.787165 155.39756 
L 120.981997 158.878348 
L 121.111885 158.03783 
L 121.176829 158.681324 
L 121.241773 154.089818 
L 121.306717 154.424851 
L 121.566492 157.829672 
L 121.69638 159.150028 
L 121.826268 162.273357 
L 121.891212 161.498774 
L 121.956156 161.768809 
L 122.021099 160.974325 
L 122.086043 161.267054 
L 122.215931 160.102615 
L 122.475707 162.680852 
L 122.540651 158.237417 
L 122.605595 158.881674 
L 122.735482 159.781813 
L 122.930314 165.84699 
L 122.995258 165.355961 
L 123.125146 163.29588 
L 123.255034 159.529012 
L 123.319977 161.326452 
L 123.384921 160.975489 
L 123.579753 159.289285 
L 123.774585 172.017896 
L 123.839529 171.243145 
L 123.904473 160.09586 
L 123.969416 160.43443 
L 124.164248 162.463562 
L 124.35908 160.95771 
L 124.553912 163.256046 
L 124.813687 158.709765 
L 124.878631 159.061448 
L 125.073463 157.738232 
L 125.138407 158.820708 
L 125.333238 156.743334 
L 125.463126 157.857904 
L 125.52807 162.942092 
L 125.657958 157.008913 
L 125.852789 158.524698 
L 126.112565 159.387695 
L 126.502228 160.589414 
L 126.567172 160.639696 
L 126.891892 162.002986 
L 127.02178 162.109845 
L 127.606275 165.171858 
L 127.801106 166.230468 
L 127.86605 165.924379 
L 128.19077 167.979859 
L 128.320658 168.821868 
L 128.385601 168.342111 
L 128.580433 169.213387 
L 128.645377 169.04112 
L 128.840209 169.784258 
L 129.03504 170.318981 
L 129.229872 171.604312 
L 129.294816 171.685846 
L 129.35976 172.418663 
L 129.424704 172.062592 
L 129.489648 171.128047 
L 129.554592 171.745759 
L 130.009199 174.499826 
L 130.333918 175.947641 
L 130.52875 172.449719 
L 130.593694 172.771357 
L 130.658638 172.524017 
L 131.243133 175.049599 
L 131.373021 176.413226 
L 131.437965 175.594848 
L 131.632796 177.522068 
L 131.762684 177.004989 
L 131.957516 178.795036 
L 132.02246 178.252425 
L 132.152348 176.422947 
L 132.217291 176.242879 
L 132.282235 177.198021 
L 132.347179 175.792851 
L 132.542011 177.4086 
L 132.736843 178.113505 
L 132.931674 175.380667 
L 132.996618 175.47735 
L 133.256394 177.831865 
L 133.321338 177.247096 
L 133.386282 177.377053 
L 133.516169 175.914248 
L 133.646057 178.187098 
L 133.711001 177.100755 
L 133.775945 177.11116 
L 133.905833 179.130097 
L 134.100664 181.677083 
L 134.230552 183.711807 
L 134.295496 183.676831 
L 134.36044 181.432513 
L 134.425384 182.197932 
L 134.490328 182.193774 
L 134.944935 187.631626 
L 135.009879 183.328932 
L 135.074823 185.3817 
L 135.139767 182.982963 
L 135.204711 183.920937 
L 135.334599 186.321828 
L 135.399542 184.661228 
L 135.594374 187.958534 
L 135.659318 187.958534 
L 135.85415 192.328531 
L 135.984038 182.001957 
L 136.048981 183.442594 
L 136.243813 184.788157 
L 136.373701 186.576104 
L 136.438645 188.072699 
L 136.69842 183.700332 
L 136.828308 187.683212 
L 136.893252 181.214072 
L 136.958196 181.736538 
L 137.153028 179.498761 
L 137.217972 179.30042 
L 137.347859 180.795096 
L 137.412803 180.167349 
L 137.477747 180.554137 
L 137.607635 180.446465 
L 137.802467 181.249049 
L 137.867411 181.592262 
L 137.932354 181.195379 
L 138.19213 182.266311 
L 138.257074 181.378038 
L 138.322018 182.696952 
L 138.386962 182.601669 
L 138.51685 181.863471 
L 138.841569 184.701022 
L 139.750784 187.625951 
L 139.815728 187.453511 
L 140.53011 191.155667 
L 140.659998 191.743417 
L 140.724942 191.229803 
L 141.634157 196.619041 
L 141.699101 196.038133 
L 141.764044 196.370174 
L 141.893932 197.019201 
L 142.673259 202.548448 
L 142.803147 201.20002 
L 143.127866 204.348316 
L 143.19281 202.243466 
L 143.257754 202.757591 
L 143.322698 202.981001 
L 143.387642 198.902294 
L 143.452586 199.510025 
L 143.51753 199.947204 
L 143.582474 199.801221 
L 143.647417 199.848075 
L 143.842249 201.282834 
L 144.166969 204.052324 
L 144.231913 204.20517 
L 144.3618 205.586676 
L 144.426744 205.388878 
L 144.491688 206.053824 
L 144.556632 206.020971 
L 144.621576 206.081926 
L 144.68652 206.527291 
L 144.751464 205.388878 
L 144.881352 206.546514 
L 144.946295 206.19703 
L 145.011239 206.51119 
L 145.141127 201.469555 
L 145.465847 203.802948 
L 145.595734 203.800955 
L 145.85551 207.402251 
L 145.920454 207.313707 
L 145.985398 208.17771 
L 146.115286 205.145455 
L 146.245173 206.983399 
L 146.310117 204.092648 
L 146.375061 204.470068 
L 146.440005 204.031084 
L 146.634837 207.013299 
L 146.764725 205.128357 
L 147.0245 208.115978 
L 147.089444 206.839794 
L 147.154388 208.125528 
L 147.219332 204.155144 
L 147.284276 204.618925 
L 147.414164 206.341871 
L 147.479107 206.058434 
L 147.544051 206.580854 
L 147.803827 210.495703 
L 147.868771 209.291891 
L 147.933715 209.862737 
L 148.128546 213.153181 
L 148.258434 211.410498 
L 148.388322 215.351557 
L 148.453266 218.25103 
L 148.51821 214.230711 
L 148.583154 214.638913 
L 148.972817 221.707785 
L 149.037761 221.840532 
L 149.167649 219.916216 
L 149.232593 214.65938 
L 149.297537 217.031725 
L 149.36248 216.580706 
L 149.492368 213.554905 
L 149.557312 214.670065 
L 149.622256 214.405634 
L 149.752144 219.336167 
L 149.817088 222.387117 
L 149.882032 211.0805 
L 149.946976 211.457997 
L 150.206751 215.103477 
L 150.271695 214.689678 
L 150.336639 215.073121 
L 150.466527 218.562359 
L 150.531471 216.862974 
L 150.596415 217.418804 
L 151.051022 211.282344 
L 151.115966 213.109121 
L 151.18091 212.151709 
L 151.245854 211.382632 
L 151.310797 211.819526 
L 151.375741 212.692963 
L 151.440685 211.848517 
L 151.505629 216.108177 
L 151.635517 210.568386 
L 151.765405 212.458547 
L 153.648778 218.73074 
L 153.713722 218.44713 
L 154.038441 220.273288 
L 154.622936 223.260624 
L 154.68788 222.785667 
L 154.752824 223.104408 
L 155.142487 225.661695 
L 155.662039 229.326552 
L 155.726982 229.983609 
L 155.791926 229.459705 
L 156.116646 232.648205 
L 156.18159 230.736989 
L 156.246534 231.250162 
L 156.311478 232.085338 
L 156.376421 228.987491 
L 156.441365 229.747424 
L 156.571253 231.460212 
L 156.636197 230.349845 
L 156.895973 233.219298 
L 156.960917 232.868986 
L 157.220692 235.706234 
L 157.35058 238.650023 
L 157.415524 237.54787 
L 157.545412 239.225449 
L 157.610356 239.110024 
L 157.740243 237.360718 
L 157.870131 239.411537 
L 157.935075 239.13459 
L 158.000019 239.519511 
L 158.129907 232.130709 
L 158.194851 231.473556 
L 158.649458 235.012694 
L 158.714402 233.422533 
L 158.779346 234.376076 
L 158.84429 235.50574 
L 159.039121 233.227224 
L 159.104065 233.163406 
L 159.233953 235.232987 
L 159.428785 231.043813 
L 159.623616 233.765312 
L 159.68856 233.512372 
L 159.818448 231.556518 
L 159.883392 232.289319 
L 160.01328 234.873532 
L 160.078224 234.532132 
L 160.143168 234.532132 
L 160.208111 232.069112 
L 160.273055 233.521389 
L 160.337999 233.627292 
L 160.402943 234.339622 
L 160.467887 234.198778 
L 160.532831 234.125532 
L 160.922494 239.715327 
L 160.987438 238.829358 
L 161.052382 242.992051 
L 161.117326 242.418491 
L 161.18227 239.564788 
L 161.247214 240.567108 
L 161.312158 240.287631 
L 161.701821 249.163581 
L 161.831709 259.846126 
L 162.091484 250.869476 
L 162.221372 244.090484 
L 162.286316 244.951584 
L 162.35126 244.670087 
L 162.611036 240.622246 
L 162.805867 246.860392 
L 162.870811 237.407413 
L 162.935755 238.59159 
L 163.000699 239.749174 
L 163.065643 239.150429 
L 163.130587 238.974303 
L 163.325419 240.95931 
L 163.390362 240.359929 
L 163.52025 239.595787 
L 163.715082 240.319922 
L 163.780026 240.082537 
L 164.039801 238.365475 
L 164.104745 239.423385 
L 164.234633 236.604145 
L 164.299577 239.185756 
L 164.364521 237.709657 
L 164.624296 234.460861 
L 164.68924 234.808257 
L 165.01396 236.344317 
L 165.078904 236.393913 
L 165.403623 238.212463 
L 166.053062 240.525189 
L 166.118006 240.990436 
L 166.18295 240.798044 
L 166.247894 241.053604 
L 166.50767 242.972839 
L 166.572613 243.012897 
L 166.637557 243.617716 
L 166.702501 242.876009 
L 166.832389 244.005495 
L 166.897333 243.977186 
L 166.962277 243.978827 
L 167.157109 244.879216 
L 167.222052 244.822543 
L 167.416884 245.945172 
L 167.481828 244.818854 
L 167.546772 245.117767 
L 167.611716 245.117767 
L 167.67666 245.691981 
L 167.741604 245.665259 
L 167.806547 245.665259 
L 167.936435 247.060542 
L 168.001379 246.504666 
L 168.066323 246.727984 
L 168.131267 246.947528 
L 168.326099 249.309027 
L 168.455986 249.994098 
L 168.650818 252.196353 
L 168.780706 250.06905 
L 168.84565 250.279521 
L 169.300257 256.457287 
L 169.430145 250.595442 
L 169.495089 250.902032 
L 169.884752 256.161899 
L 169.949696 255.79722 
L 170.274416 260.334332 
L 170.33936 260.122099 
L 170.404303 260.812983 
L 170.793967 269.89911 
L 170.858911 263.557081 
L 170.923855 264.416949 
L 170.988798 264.828923 
L 171.053742 255.853045 
L 171.118686 255.900557 
L 171.18363 256.61306 
L 171.248574 255.861743 
L 171.378462 257.614522 
L 171.443406 256.989455 
L 171.50835 257.764135 
L 171.573294 256.022887 
L 171.768125 259.312108 
L 171.962957 258.697778 
L 172.092845 254.254183 
L 172.157789 254.264396 
L 172.222733 254.556205 
L 172.287676 251.900446 
L 172.35262 253.6283 
L 172.547452 256.006615 
L 172.67734 256.423964 
L 172.742284 255.573002 
L 172.937115 257.852976 
L 173.067003 256.699207 
L 173.131947 258.697778 
L 173.196891 254.277165 
L 173.261835 256.232537 
L 173.326779 256.447777 
L 173.521611 259.38356 
L 173.651498 261.075191 
L 173.716442 263.663517 
L 173.781386 263.33061 
L 173.911274 260.451046 
L 173.976218 265.058331 
L 174.041162 262.265109 
L 174.365881 269.539398 
L 174.430825 269.855221 
L 174.495769 259.368401 
L 174.560713 260.064 
L 174.755545 263.989558 
L 174.820488 263.63882 
L 174.950376 266.190873 
L 175.01532 265.192722 
L 175.145208 264.711221 
L 175.210152 260.337205 
L 175.275096 263.753346 
L 175.34004 261.328244 
L 175.534871 260.136404 
L 175.599815 260.332456 
L 175.729703 263.968904 
L 175.794647 263.578044 
L 175.859591 257.744109 
L 175.924535 258.522853 
L 175.989479 257.972164 
L 176.50903 264.678286 
L 176.573974 261.766757 
L 176.638918 262.076431 
L 176.768805 263.339832 
L 176.833749 261.946669 
L 176.898693 262.051358 
L 177.093525 265.719705 
L 177.158469 263.22699 
L 177.223413 264.872527 
L 177.3533 262.062066 
L 177.418244 262.216484 
L 177.483188 269.556666 
L 177.548132 267.284891 
L 177.613076 265.666989 
L 177.742964 267.512112 
L 177.872852 267.512112 
L 178.002739 269.451049 
L 178.132627 269.451049 
L 178.262515 269.776704 
L 178.327459 269.776704 
L 178.392403 269.451049 
L 178.522291 271.772664 
L 178.587235 271.772664 
L 178.717122 271.343432 
L 179.041842 271.343432 
L 179.17173 274.018613 
L 179.236674 274.018613 
L 179.366561 271.701587 
L 179.431505 271.701587 
L 179.561393 274.526326 
L 179.691281 274.912356 
L 179.886112 274.912356 
L 180.016 274.526326 
L 180.080944 274.526326 
L 180.210832 277.869765 
L 180.405664 277.888125 
L 180.470608 277.307154 
L 180.535551 277.888125 
L 180.665439 277.307154 
L 180.795327 277.307154 
L 180.925215 280.524448 
L 181.120047 280.524448 
L 181.249934 280.673671 
L 181.314878 280.673671 
L 181.444766 284.294031 
L 181.704542 284.248501 
L 181.769486 284.046193 
L 181.899373 284.294031 
L 182.159149 290.111791 
L 182.353981 284.248501 
L 182.418925 285.929178 
L 182.483868 284.248501 
L 182.613756 285.929178 
L 182.808588 285.929178 
L 182.873532 290.111791 
L 182.938476 285.929178 
L 183.068363 290.111791 
L 183.652859 290.111791 
L 183.782746 286.614486 
L 183.977578 292.695485 
L 184.107466 281.434936 
L 184.237354 281.434936 
L 184.367241 285.929178 
L 184.432185 285.617938 
L 184.497129 285.929178 
L 184.627017 287.237186 
L 184.821849 287.237186 
L 184.886793 285.929178 
L 185.01668 287.237186 
L 185.081624 287.237186 
L 185.146568 285.617938 
L 185.211512 290.111791 
L 185.3414 284.248501 
L 185.471288 285.929178 
L 185.731063 285.929178 
L 185.925895 287.517758 
L 186.055783 287.445912 
L 186.120727 287.928302 
L 186.185671 287.852164 
L 186.380502 287.852164 
L 186.445446 287.237186 
L 186.575334 287.928302 
L 186.705222 287.928302 
L 186.770166 294.293462 
L 186.83511 294.106852 
L 186.900053 294.106852 
L 187.029941 292.847819 
L 187.159829 292.847819 
L 187.289717 292.695485 
L 187.354661 289.654824 
L 187.419605 290.216969 
L 187.484549 290.111791 
L 187.614436 290.746044 
L 187.67938 290.746044 
L 187.809268 290.861221 
L 187.874212 293.804687 
L 187.939156 290.247477 
L 188.133988 293.804687 
L 188.198931 293.804687 
L 188.328819 292.892198 
L 188.393763 292.892198 
L 188.458707 293.804687 
L 188.588595 288.195143 
L 188.653539 288.648526 
L 188.783427 294.348 
L 188.84837 290.141846 
L 188.913314 292.738911 
L 188.978258 290.247477 
L 189.108146 293.804687 
L 189.17309 293.630442 
L 189.497809 293.630442 
L 189.627697 288.11608 
L 189.822529 288.11608 
L 189.952417 287.080346 
L 190.147248 287.012809 
L 190.212192 287.012809 
L 190.277136 288.564234 
L 190.407024 287.012809 
L 190.601856 289.557665 
L 190.796687 289.654824 
L 191.51107 289.654824 
L 191.640958 292.044966 
L 192.030621 292.044966 
L 192.160509 292.847819 
L 192.225453 292.847819 
L 192.355341 293.319698 
L 193.784107 293.319698 
L 193.913994 292.044966 
L 194.108826 292.044966 
L 194.238714 293.319698 
L 194.368602 293.319698 
L 194.49849 292.044966 
L 194.758265 292.044966 
L 194.888153 293.319698 
L 195.018041 292.044966 
L 195.082985 293.319698 
L 195.147928 292.044966 
L 195.277816 293.156922 
L 195.472648 293.156922 
L 195.537592 294.159957 
L 195.602536 293.156922 
L 195.732424 294.159957 
L 195.862311 294.159957 
L 195.927255 293.156922 
L 196.057143 294.159957 
L 196.122087 294.159957 
L 196.251975 293.156922 
L 196.446806 293.156922 
L 196.576694 294.159957 
L 196.901414 294.159957 
L 196.966358 295.267407 
L 197.161189 292.044966 
L 197.226133 292.044966 
L 197.291077 293.319698 
L 197.356021 292.044966 
L 197.420965 293.319698 
L 197.550853 292.044966 
L 197.615797 293.319698 
L 197.745684 292.044966 
L 197.810628 293.319698 
L 197.875572 292.044966 
L 198.00546 294.293462 
L 198.070404 294.106852 
L 198.200292 292.044966 
L 198.395123 292.044966 
L 198.460067 292.892198 
L 198.525011 292.738911 
L 198.654899 292.738911 
L 198.719843 291.908897 
L 198.849731 293.319698 
L 199.434226 293.319698 
L 199.564114 293.156922 
L 199.694001 293.319698 
L 199.758945 293.156922 
L 199.888833 293.319698 
L 200.278496 293.319698 
L 200.408384 292.044966 
L 200.473328 291.908897 
L 200.603216 293.156922 
L 200.862992 293.156922 
L 200.992879 291.908897 
L 201.447487 291.908897 
L 201.642318 294.159957 
L 201.772206 292.738911 
L 201.902094 294.159957 
L 202.031982 292.738911 
L 202.291757 295.267407 
L 202.421645 292.738911 
L 202.551533 294.159957 
L 202.681421 294.159957 
L 202.811308 292.738911 
L 203.00614 292.738911 
L 203.136028 294.159957 
L 203.395804 294.159957 
L 203.460747 295.267407 
L 203.720523 292.044966 
L 204.889513 292.044966 
L 205.019401 293.319698 
L 205.149289 292.044966 
L 205.214233 292.044966 
L 205.34412 293.319698 
L 205.66884 293.319698 
L 205.798728 294.348 
L 205.863672 294.348 
L 205.928616 292.892198 
L 206.058503 294.348 
L 206.513111 294.348 
L 206.642998 295.488 
L 206.772886 295.488 
L 206.902774 292.892198 
L 206.967718 292.892198 
L 207.16255 295.267407 
L 207.292437 294.348 
L 207.357381 294.348 
L 207.422325 295.488 
L 207.487269 295.267407 
L 207.682101 295.267407 
L 207.747045 294.159957 
L 207.876932 295.267407 
L 208.266596 295.267407 
L 208.396484 293.630442 
L 209.955137 293.630442 
L 210.279857 290.247477 
L 210.344801 290.247477 
L 210.409744 292.738911 
L 210.474688 291.908897 
L 210.66952 291.908897 
L 210.799408 292.044966 
L 210.99424 292.044966 
L 211.124127 292.892198 
L 211.189071 292.892198 
L 211.318959 289.654824 
L 211.578735 289.654824 
L 211.708622 291.908897 
L 211.83851 292.044966 
L 212.747725 292.044966 
L 212.877613 291.908897 
L 212.942557 291.908897 
L 213.072444 293.156922 
L 213.267276 293.156922 
L 213.33222 292.738911 
L 213.462108 294.348 
L 213.527052 294.348 
L 213.656939 294.159957 
L 213.721883 293.319698 
L 213.851771 294.348 
L 213.916715 294.348 
L 214.046603 294.159957 
L 214.176491 294.159957 
L 214.306378 293.156922 
L 214.371322 293.156922 
L 214.50121 294.159957 
L 214.631098 294.159957 
L 214.760986 295.267407 
L 214.890873 293.630442 
L 214.955817 293.630442 
L 215.020761 292.738911 
L 215.150649 293.630442 
L 215.280537 292.738911 
L 215.475369 292.738911 
L 215.605256 293.630442 
L 215.6702 293.630442 
L 215.800088 292.738911 
L 216.059864 292.738911 
L 216.189751 293.630442 
L 216.319639 292.738911 
L 216.384583 292.738911 
L 216.449527 293.630442 
L 216.514471 291.908897 
L 216.579415 292.044966 
L 217.683461 292.044966 
L 217.813349 293.319698 
L 218.008181 293.319698 
L 218.138068 292.044966 
L 218.267956 293.319698 
L 218.65762 293.319698 
L 218.787507 294.348 
L 219.566834 294.348 
L 219.631778 295.488 
L 219.696722 295.267407 
L 219.761666 295.267407 
L 219.891554 292.892198 
L 221.060544 292.892198 
L 221.190432 292.738911 
L 223.008861 292.738911 
L 223.073805 292.892198 
L 223.138748 292.738911 
L 223.268636 292.892198 
L 223.398524 294.159957 
L 223.6583 294.159957 
L 223.788187 294.348 
L 223.983019 294.348 
L 224.047963 294.159957 
L 224.242795 291.908897 
L 224.372683 292.044966 
L 224.50257 292.044966 
L 224.632458 292.738911 
L 224.697402 291.908897 
L 224.82729 293.319698 
L 225.606617 293.319698 
L 225.736504 293.156922 
L 225.866392 293.319698 
L 225.99628 293.319698 
L 226.126168 293.156922 
L 226.256056 294.159957 
L 226.320999 294.159957 
L 226.450887 294.348 
L 226.580775 294.159957 
L 226.645719 294.159957 
L 226.775607 294.348 
L 226.840551 294.348 
L 226.970438 294.159957 
L 227.554934 294.159957 
L 227.684821 295.267407 
L 228.33426 295.267407 
L 228.464148 294.159957 
L 228.594036 295.267407 
L 228.788868 292.738911 
L 229.113587 292.738911 
L 229.308419 295.267407 
L 229.373363 294.159957 
L 229.438307 295.267407 
L 229.568194 291.908897 
L 229.698082 292.044966 
L 231.256736 292.044966 
L 231.386624 292.847819 
L 231.451567 292.847819 
L 231.581455 295.488 
L 231.711343 294.293462 
L 232.036062 294.293462 
L 232.16595 295.488 
L 232.685501 295.488 
L 232.750445 295.267407 
L 232.880333 292.892198 
L 234.049323 292.892198 
L 234.179211 292.738911 
L 234.503931 292.738911 
L 234.633818 293.630442 
L 234.698762 293.630442 
L 234.82865 292.738911 
L 234.958538 292.738911 
L 235.088426 293.630442 
L 235.15337 293.630442 
L 235.283257 292.738911 
L 235.413145 292.738911 
L 235.543033 293.630442 
L 235.672921 293.630442 
L 235.802809 295.267407 
L 235.99764 292.892198 
L 236.192472 292.892198 
L 236.257416 292.738911 
L 236.32236 292.892198 
L 236.387304 292.738911 
L 236.517191 294.159957 
L 236.582135 294.159957 
L 236.712023 295.488 
L 236.906855 295.488 
L 236.971799 294.106852 
L 237.036743 295.267407 
L 237.231574 292.044966 
L 237.361462 291.908897 
L 237.49135 292.044966 
L 237.881013 292.044966 
L 238.010901 292.892198 
L 238.075845 292.892198 
L 238.205733 292.738911 
L 239.114947 292.738911 
L 239.244835 294.159957 
L 239.374723 292.738911 
L 239.634499 295.488 
L 240.348881 295.488 
L 240.478769 295.267407 
L 240.738545 295.267407 
L 240.868433 293.630442 
L 242.427086 293.630442 
L 242.556974 292.738911 
L 242.686862 292.892198 
L 244.635179 292.892198 
L 244.765066 294.348 
L 245.739225 294.348 
L 245.869113 292.892198 
L 246.128888 292.892198 
L 246.258776 294.348 
L 246.32372 294.348 
L 246.453608 294.159957 
L 247.103047 294.159957 
L 247.232935 295.267407 
L 247.362822 293.630442 
L 247.427766 293.630442 
L 247.49271 292.738911 
L 247.622598 293.630442 
L 247.752486 292.738911 
L 247.882374 293.630442 
L 247.947317 293.630442 
L 248.012261 292.738911 
L 248.142149 293.630442 
L 248.791588 293.630442 
L 248.856532 292.738911 
L 248.98642 293.630442 
L 249.051364 293.630442 
L 249.181252 293.804687 
L 249.376083 293.804687 
L 249.505971 292.738911 
L 249.570915 292.738911 
L 249.700803 293.804687 
L 249.895634 293.804687 
L 250.025522 295.267407 
L 250.15541 292.892198 
L 250.285298 292.892198 
L 250.350242 292.738911 
L 250.480129 292.892198 
L 250.934737 292.892198 
L 250.999681 292.738911 
L 251.064625 292.892198 
L 251.194512 292.738911 
L 251.714064 292.738911 
L 251.779007 292.892198 
L 251.908895 292.738911 
L 252.298559 292.738911 
L 252.558334 295.488 
L 252.753166 295.488 
L 252.81811 295.267407 
L 252.947998 293.804687 
L 253.66238 293.804687 
L 253.792268 293.630442 
L 253.922156 293.630442 
L 254.052044 292.892198 
L 254.181932 292.738911 
L 254.441707 292.738911 
L 254.571595 293.630442 
L 255.285978 293.630442 
L 255.350922 292.738911 
L 255.48081 293.630442 
L 255.545754 293.630442 
L 255.675641 293.804687 
L 257.883734 293.804687 
L 258.013622 292.892198 
L 258.403285 292.892198 
L 258.468229 293.804687 
L 258.598117 292.892198 
L 258.728005 292.892198 
L 258.857892 293.804687 
L 259.507331 293.804687 
L 259.637219 294.348 
L 259.832051 294.348 
L 259.961939 292.738911 
L 260.026882 292.738911 
L 260.15677 293.630442 
L 260.221714 293.630442 
L 260.351602 295.267407 
L 260.546434 292.738911 
L 260.936097 292.738911 
L 261.065985 294.159957 
L 261.260817 294.159957 
L 261.32576 292.738911 
L 261.390704 293.630442 
L 261.585536 293.630442 
L 261.65048 292.738911 
L 261.780368 294.159957 
L 261.845312 294.159957 
L 261.975199 292.738911 
L 262.040143 292.738911 
L 262.170031 292.044966 
L 262.299919 292.044966 
L 262.429807 293.804687 
L 262.559694 292.892198 
L 262.81947 292.847819 
L 262.884414 292.847819 
L 263.014302 293.804687 
L 263.728685 293.804687 
L 263.923516 292.044966 
L 264.053404 292.044966 
L 264.183292 292.892198 
L 264.702843 292.892198 
L 264.832731 292.738911 
L 264.897675 292.738911 
L 265.027563 294.293462 
L 265.222394 294.348 
L 265.287338 294.348 
L 265.417226 293.319698 
L 265.547114 293.156922 
L 265.612058 293.156922 
L 265.677002 295.267407 
L 265.741945 294.159957 
L 266.001721 292.892198 
L 266.131609 292.738911 
L 266.391384 292.738911 
L 266.456328 291.908897 
L 266.521272 292.738911 
L 266.65116 291.908897 
L 266.716104 291.908897 
L 266.845992 294.159957 
L 266.97588 292.738911 
L 267.040823 292.892198 
L 267.170711 292.738911 
L 267.430487 292.738911 
L 267.560375 294.159957 
L 268.339701 294.159957 
L 268.469589 292.738911 
L 268.534533 292.738911 
L 268.664421 292.044966 
L 270.352962 292.044966 
L 270.417906 293.319698 
L 270.547794 292.044966 
L 270.677682 292.044966 
L 270.80757 294.348 
L 270.872513 292.044966 
L 270.937457 292.892198 
L 271.067345 294.348 
L 271.132289 294.348 
L 271.262177 295.488 
L 271.392065 295.488 
L 271.521952 294.348 
L 271.65184 295.488 
L 271.716784 295.488 
L 271.846672 292.892198 
L 271.97656 292.892198 
L 272.106447 292.738911 
L 272.236335 292.892198 
L 272.431167 292.892198 
L 272.561055 295.488 
L 272.625999 295.267407 
L 272.755886 292.892198 
L 272.885774 295.267407 
L 273.015662 293.630442 
L 274.119708 293.630442 
L 274.249596 292.738911 
L 274.31454 293.630442 
L 274.444428 292.738911 
L 274.834091 292.738911 
L 274.899035 293.630442 
L 275.028923 292.738911 
L 275.158811 289.654824 
L 275.223755 289.654824 
L 275.353642 292.044966 
L 275.678362 292.044966 
L 275.743306 292.892198 
L 275.80825 292.044966 
L 275.873194 292.738911 
L 276.068025 290.247477 
L 277.496791 290.141846 
L 277.561735 290.746044 
L 277.691623 293.630442 
L 277.82151 290.861221 
L 277.951398 293.804687 
L 278.016342 293.804687 
L 278.14623 293.630442 
L 278.211174 293.630442 
L 278.341062 290.247477 
L 278.406006 290.247477 
L 278.535893 290.861221 
L 278.600837 290.861221 
L 278.665781 290.247477 
L 278.730725 290.861221 
L 278.860613 292.892198 
L 279.445108 292.892198 
L 279.574996 293.804687 
L 279.63994 293.804687 
L 279.769827 293.630442 
L 279.834771 293.630442 
L 279.964659 290.141846 
L 280.419266 290.141846 
L 280.549154 290.746044 
L 280.614098 290.746044 
L 280.743986 290.141846 
L 280.80893 290.746044 
L 280.873874 290.141846 
L 281.003761 290.746044 
L 281.133649 290.746044 
L 281.198593 290.141846 
L 281.263537 290.746044 
L 281.328481 290.141846 
L 281.393425 290.746044 
L 281.523313 290.247477 
L 282.822191 290.247477 
L 282.952078 292.892198 
L 283.731405 292.892198 
L 283.861293 293.804687 
L 284.380844 293.804687 
L 284.510732 292.892198 
L 284.835451 292.892198 
L 284.965339 292.738911 
L 285.160171 292.738911 
L 285.225115 293.630442 
L 285.290059 292.738911 
L 285.419947 290.247477 
L 285.679722 290.247477 
L 285.80961 292.892198 
L 286.199273 292.892198 
L 286.329161 292.738911 
L 286.394105 290.141846 
L 286.459049 290.247477 
L 286.653881 290.141846 
L 286.783768 292.738911 
L 287.433207 292.738911 
L 287.563095 293.630442 
L 288.017702 293.630442 
L 288.14759 293.804687 
L 288.342422 293.804687 
L 288.47231 292.738911 
L 288.602198 292.738911 
L 288.732085 293.804687 
L 288.861973 293.804687 
L 288.926917 292.738911 
L 288.991861 293.630442 
L 289.121749 292.892198 
L 289.251637 292.892198 
L 289.31658 292.738911 
L 289.446468 292.892198 
L 289.771188 292.892198 
L 289.901075 292.738911 
L 290.030963 292.892198 
L 290.160851 292.892198 
L 290.290739 292.738911 
L 290.680402 292.738911 
L 290.81029 292.892198 
L 291.264897 292.892198 
L 291.329841 292.738911 
L 291.459729 292.892198 
L 291.524673 292.892198 
L 291.654561 293.630442 
L 291.784449 293.630442 
L 291.914336 289.654824 
L 292.109168 289.654824 
L 292.239056 292.892198 
L 292.433888 292.892198 
L 292.498831 293.804687 
L 292.628719 292.892198 
L 292.888495 292.892198 
L 293.018383 292.738911 
L 293.408046 292.738911 
L 293.537934 293.630442 
L 294.512092 293.630442 
L 294.64198 292.847819 
L 296.785129 292.847819 
L 296.915016 292.044966 
L 297.694343 292.044966 
L 297.824231 294.293462 
L 298.733446 294.293462 
L 298.863333 295.488 
L 298.993221 295.488 
L 299.058165 294.106852 
L 299.188053 295.267407 
L 299.317941 295.267407 
L 299.447828 293.630442 
L 299.707604 293.630442 
L 299.837492 292.738911 
L 299.902436 292.738911 
L 300.032324 293.630442 
L 300.162211 292.738911 
L 301.006482 292.738911 
L 301.13637 292.892198 
L 301.526033 292.892198 
L 301.655921 294.293462 
L 302.500192 294.348 
L 302.565136 292.892198 
L 302.630079 294.348 
L 302.695023 293.630442 
L 303.149631 293.630442 
L 303.279518 293.804687 
L 303.604238 293.804687 
L 303.669182 292.738911 
L 303.734126 292.892198 
L 303.864014 292.892198 
L 303.993901 293.804687 
L 304.188733 293.804687 
L 304.318621 295.267407 
L 304.448509 295.488 
L 305.682443 295.488 
L 305.81233 293.630442 
L 306.266938 293.630442 
L 306.396826 292.738911 
L 306.526713 293.630442 
L 307.046265 293.630442 
L 307.176152 292.738911 
L 307.500872 292.738911 
L 307.63076 292.892198 
L 310.033684 292.892198 
L 310.163572 294.348 
L 310.683123 294.348 
L 310.813011 292.892198 
L 311.592337 292.892198 
L 311.657281 292.738911 
L 311.787169 294.348 
L 311.917057 294.159957 
L 312.046945 292.738911 
L 312.176832 292.738911 
L 312.30672 294.159957 
L 312.371664 294.159957 
L 312.436608 294.348 
L 312.566496 294.159957 
L 312.696384 294.159957 
L 312.761328 292.738911 
L 312.891215 294.159957 
L 313.995262 294.159957 
L 314.125149 294.348 
L 314.319981 293.630442 
L 314.449869 293.630442 
L 314.514813 292.738911 
L 314.644701 295.488 
L 314.709644 295.488 
L 314.839532 293.804687 
L 314.96942 295.267407 
L 315.099308 292.892198 
L 315.359083 292.892198 
L 315.488971 292.738911 
L 315.618859 292.738911 
L 315.748747 293.319698 
L 316.722905 293.319698 
L 316.852793 293.156922 
L 317.242456 293.156922 
L 317.3074 293.319698 
L 317.437288 293.156922 
L 318.086727 293.156922 
L 318.216615 294.159957 
L 319.840212 294.159957 
L 319.9701 295.267407 
L 322.243137 295.267407 
L 322.308081 293.630442 
L 322.437968 295.267407 
L 322.567856 295.267407 
L 322.697744 293.630442 
L 323.671902 293.630442 
L 323.80179 295.267407 
L 323.996622 295.267407 
L 324.12651 293.630442 
L 324.191454 293.630442 
L 324.321341 295.267407 
L 324.646061 295.267407 
L 324.775949 295.488 
L 324.840893 293.804687 
L 324.97078 295.488 
L 325.165612 295.488 
L 325.2955 293.804687 
L 325.425388 295.488 
L 325.750107 295.488 
L 325.944939 292.892198 
L 326.919097 292.892198 
L 326.984041 292.044966 
L 327.243817 294.159957 
L 327.308761 292.738911 
L 327.438648 294.159957 
L 327.503592 294.159957 
L 327.568536 294.293462 
L 327.698424 295.267407 
L 327.763368 295.267407 
L 327.828312 294.106852 
L 327.9582 295.488 
L 328.282919 295.488 
L 328.412807 295.267407 
L 328.477751 295.267407 
L 328.542695 294.348 
L 328.672583 295.488 
L 328.80247 292.738911 
L 328.867414 292.738911 
L 328.997302 292.892198 
L 329.12719 292.738911 
L 329.841573 292.738911 
L 329.906517 292.892198 
L 330.036404 292.738911 
L 330.101348 292.738911 
L 330.166292 292.892198 
L 330.29618 295.267407 
L 330.815731 295.267407 
L 330.945619 295.488 
L 331.075507 295.488 
L 331.205395 294.106852 
L 331.335282 294.293462 
L 331.46517 294.293462 
L 331.595058 295.488 
L 331.660002 295.488 
L 331.78989 292.847819 
L 331.919777 294.293462 
L 332.049665 292.847819 
L 332.244497 292.847819 
L 332.374385 293.804687 
L 333.023824 293.804687 
L 333.153711 292.892198 
L 333.283599 292.847819 
L 333.348543 292.044966 
L 333.413487 295.488 
L 333.478431 293.804687 
L 333.608319 295.267407 
L 334.647421 295.267407 
L 334.777309 293.630442 
L 337.440009 293.630442 
L 337.569897 293.804687 
L 338.024504 293.804687 
L 338.154392 292.892198 
L 338.284279 292.892198 
L 338.414167 295.488 
L 338.544055 294.348 
L 338.673943 295.488 
L 338.868774 295.488 
L 339.063606 292.892198 
L 339.972821 292.892198 
L 340.037765 292.738911 
L 340.167652 294.348 
L 340.29754 294.159957 
L 340.427428 294.348 
L 340.492372 294.348 
L 340.557316 295.488 
L 340.62226 295.267407 
L 340.882035 295.267407 
L 341.011923 295.488 
L 341.206755 295.488 
L 341.336643 294.159957 
L 341.79125 294.159957 
L 341.856194 294.348 
L 341.986082 291.908897 
L 342.245857 294.159957 
L 342.310801 294.348 
L 342.440689 292.892198 
L 342.635521 292.892198 
L 342.700464 294.159957 
L 342.895296 291.908897 
L 343.025184 294.159957 
L 343.544735 294.106852 
L 343.609679 295.267407 
L 343.739567 294.106852 
L 344.064286 294.106852 
L 344.194174 295.267407 
L 344.583837 295.267407 
L 344.713725 295.488 
L 344.778669 295.488 
L 344.908557 295.267407 
L 345.038445 295.488 
L 345.363164 295.488 
L 345.557996 292.892198 
L 346.272379 292.847819 
L 346.337323 292.044966 
L 346.402267 295.488 
L 346.467211 293.804687 
L 346.597098 295.267407 
L 348.155752 295.267407 
L 348.28564 293.630442 
L 349.649462 293.630442 
L 349.779349 295.267407 
L 349.909237 295.267407 
L 350.039125 293.630442 
L 350.169013 293.630442 
L 350.298901 295.267407 
L 350.363844 295.267407 
L 350.428788 295.488 
L 350.558676 293.804687 
L 351.013283 293.804687 
L 351.143171 292.892198 
L 351.208115 294.348 
L 351.273059 292.892198 
L 351.402947 295.488 
L 351.532835 294.348 
L 351.597778 294.348 
L 351.727666 295.488 
L 351.857554 294.348 
L 351.987442 295.488 
L 352.11733 294.348 
L 352.247217 294.348 
L 352.377105 293.804687 
L 352.442049 293.804687 
L 352.571937 292.892198 
L 352.701825 292.892198 
L 352.766769 293.804687 
L 352.9616 292.044966 
L 353.026544 294.348 
L 353.091488 292.738911 
L 353.221376 294.159957 
L 353.28632 294.159957 
L 353.416208 294.348 
L 353.481152 294.348 
L 353.546095 295.488 
L 353.611039 295.267407 
L 353.870815 295.267407 
L 354.000703 295.488 
L 354.13059 295.488 
L 354.260478 294.348 
L 354.390366 294.159957 
L 354.715086 294.159957 
L 354.844973 294.348 
L 354.974861 292.738911 
L 355.559356 292.738911 
L 355.6243 292.892198 
L 355.754188 291.908897 
L 355.884076 291.908897 
L 355.94902 294.159957 
L 356.013964 293.156922 
L 356.143851 294.159957 
L 356.338683 294.106852 
L 357.053066 294.106852 
L 357.182954 295.267407 
L 357.637561 295.267407 
L 357.702505 295.488 
L 357.767449 295.267407 
L 357.832393 295.488 
L 357.897337 295.267407 
L 358.027224 295.488 
L 358.351944 295.488 
L 358.481832 293.804687 
L 359.261158 293.804687 
L 359.326102 292.044966 
L 359.391046 295.488 
L 359.45599 293.804687 
L 359.585878 295.267407 
L 360.884756 295.267407 
L 360.9497 293.630442 
L 361.079588 295.267407 
L 361.144531 295.267407 
L 361.274419 293.630442 
L 361.339363 293.630442 
L 361.469251 295.267407 
L 361.534195 295.267407 
L 361.664083 293.630442 
L 362.638241 293.630442 
L 362.768129 295.267407 
L 363.157792 295.267407 
L 363.28768 293.630442 
L 363.417568 293.804687 
L 364.002063 293.804687 
L 364.131951 292.892198 
L 364.196895 295.488 
L 364.261839 293.804687 
L 364.391726 295.488 
L 364.716446 295.488 
L 364.846334 292.892198 
L 364.976221 295.488 
L 365.041165 295.488 
L 365.235997 292.892198 
L 365.365885 293.804687 
L 365.495773 292.892198 
L 365.95038 292.892198 
L 366.015324 294.348 
L 366.080268 292.738911 
L 366.210155 294.159957 
L 366.275099 294.159957 
L 366.404987 294.348 
L 366.469931 294.348 
L 366.534875 295.488 
L 366.599819 295.267407 
L 366.859594 295.267407 
L 366.989482 295.488 
L 367.11937 294.348 
L 367.249258 294.348 
L 367.379146 294.159957 
L 367.44409 294.159957 
L 367.573977 292.738911 
L 367.638921 292.738911 
L 367.703865 292.892198 
L 367.833753 292.738911 
L 367.963641 292.892198 
L 368.093529 292.738911 
L 368.807911 292.738911 
L 368.872855 292.892198 
L 369.002743 292.738911 
L 369.067687 292.738911 
L 369.132631 292.892198 
L 369.262519 295.267407 
L 369.847014 295.267407 
L 369.976902 295.488 
L 370.171733 295.488 
L 370.301621 294.293462 
L 370.431509 294.293462 
L 370.561397 295.488 
L 370.626341 295.488 
L 370.756228 292.847819 
L 370.886116 294.293462 
L 371.016004 294.348 
L 371.080948 292.892198 
L 371.145892 295.488 
L 371.210836 293.804687 
L 371.405667 292.044966 
L 371.470611 292.044966 
L 371.600499 293.804687 
L 371.665443 293.804687 
L 371.795331 292.892198 
L 372.184994 292.892198 
L 372.314882 292.044966 
L 372.44477 295.488 
L 372.574657 295.267407 
L 374.068367 295.267407 
L 374.198255 293.630442 
L 374.328143 293.630442 
L 374.393087 295.267407 
L 374.522974 293.630442 
L 375.627021 293.630442 
L 375.756908 295.267407 
L 376.146572 295.267407 
L 376.27646 293.630442 
L 376.406347 293.630442 
L 376.536235 293.804687 
L 376.990843 293.804687 
L 377.12073 292.892198 
L 377.250618 294.348 
L 377.315562 294.348 
L 377.44545 295.488 
L 377.575338 294.348 
L 377.640282 295.488 
L 377.770169 294.348 
L 377.835113 294.348 
L 377.965001 295.488 
L 378.224777 295.488 
L 378.354664 294.348 
L 378.484552 294.348 
L 378.61444 292.892198 
L 378.679384 292.892198 
L 378.744328 293.804687 
L 378.874216 292.892198 
L 378.939159 292.892198 
L 379.069047 294.348 
L 379.133991 294.348 
L 379.263879 294.159957 
L 379.458711 294.159957 
L 379.523655 295.488 
L 379.588598 295.267407 
L 379.978262 295.267407 
L 380.10815 295.488 
L 380.173094 294.159957 
L 380.238037 295.488 
L 380.302981 295.267407 
L 380.432869 295.267407 
L 380.562757 294.159957 
L 380.627701 294.159957 
L 380.692645 294.348 
L 380.822533 294.159957 
L 380.887476 294.159957 
L 381.082308 291.908897 
L 381.212196 293.156922 
L 381.601859 293.156922 
L 381.731747 291.908897 
L 381.796691 291.908897 
L 381.991523 294.159957 
L 382.12141 294.348 
L 382.251298 294.106852 
L 382.511074 294.106852 
L 382.576018 295.267407 
L 382.705906 294.106852 
L 382.965681 294.106852 
L 383.030625 294.293462 
L 383.160513 295.267407 
L 383.290401 295.488 
L 383.355345 295.488 
L 383.420288 295.267407 
L 383.550176 295.488 
L 383.61512 295.488 
L 383.745008 293.804687 
L 383.874896 295.488 
L 384.004784 295.488 
L 384.069727 295.267407 
L 384.199615 295.488 
L 384.329503 294.348 
L 384.394447 295.488 
L 384.654222 292.044966 
L 384.78411 294.348 
L 384.849054 294.348 
L 385.043886 292.044966 
L 385.303661 292.044966 
L 385.433549 295.488 
L 385.563437 295.267407 
L 386.862315 295.267407 
L 386.927259 293.630442 
L 386.992203 295.267407 
L 387.122091 293.630442 
L 388.6158 293.630442 
L 388.745688 295.267407 
L 388.94052 295.267407 
L 389.070408 293.630442 
L 389.135351 293.630442 
L 389.265239 295.267407 
L 389.330183 295.267407 
L 389.395127 293.630442 
L 389.460071 293.804687 
L 389.979622 293.804687 
L 390.10951 292.892198 
L 390.174454 294.348 
L 390.239398 292.892198 
L 390.369285 295.488 
L 390.499173 294.348 
L 390.564117 294.348 
L 390.694005 295.488 
L 390.823893 294.348 
L 391.083668 294.348 
L 391.148612 292.892198 
L 391.2785 294.348 
L 391.343444 294.348 
L 391.473332 292.892198 
L 391.927939 292.892198 
L 392.057827 294.159957 
L 392.122771 294.348 
L 392.252659 294.159957 
L 392.44749 294.159957 
L 392.512434 295.488 
L 392.577378 295.267407 
L 393.096929 295.267407 
L 393.226817 295.488 
L 393.291761 295.267407 
L 393.421649 293.156922 
L 393.486593 294.159957 
L 393.61648 293.156922 
L 393.681424 293.156922 
L 393.746368 293.319698 
L 393.811312 294.348 
L 393.876256 294.106852 
L 393.9412 294.106852 
L 394.071088 295.488 
L 394.395807 295.488 
L 394.590639 292.044966 
L 394.720527 293.319698 
L 394.785471 293.319698 
L 394.850414 292.044966 
L 394.915358 294.159957 
L 394.980302 293.319698 
L 395.045246 293.319698 
L 395.11019 292.044966 
L 395.240078 294.106852 
L 396.019405 294.106852 
L 396.149292 295.267407 
L 396.409068 295.267407 
L 396.474012 294.106852 
L 396.538956 294.293462 
L 396.6039 294.293462 
L 396.733787 295.488 
L 398.357385 295.488 
L 398.422329 294.293462 
L 398.487273 295.267407 
L 398.487273 295.267407 
" style="fill:none;stroke:#1f77b4;stroke-linecap:square;stroke-width:1.5;"/>
   </g>
   <g id="patch_3">
    <path d="M 57.6 307.584 
L 57.6 41.472 
" style="fill:none;stroke:#000000;stroke-linecap:square;stroke-linejoin:miter;stroke-width:0.8;"/>
   </g>
   <g id="patch_4">
    <path d="M 414.72 307.584 
L 414.72 41.472 
" style="fill:none;stroke:#000000;stroke-linecap:square;stroke-linejoin:miter;stroke-width:0.8;"/>
   </g>
   <g id="patch_5">
    <path d="M 57.6 307.584 
L 414.72 307.584 
" style="fill:none;stroke:#000000;stroke-linecap:square;stroke-linejoin:miter;stroke-width:0.8;"/>
   </g>
   <g id="patch_6">
    <path d="M 57.6 41.472 
L 414.72 41.472 
" style="fill:none;stroke:#000000;stroke-linecap:square;stroke-linejoin:miter;stroke-width:0.8;"/>
   </g>
   <g id="legend_1">
    <g id="patch_7">
     <path d="M 349.7575 64.150125 
L 407.72 64.150125 
Q 409.72 64.150125 409.72 62.150125 
L 409.72 48.472 
Q 409.72 46.472 407.72 46.472 
L 349.7575 46.472 
Q 347.7575 46.472 347.7575 48.472 
L 347.7575 62.150125 
Q 347.7575 64.150125 349.7575 64.150125 
z
" style="fill:#ffffff;opacity:0.8;stroke:#cccccc;stroke-linejoin:miter;"/>
    </g>
    <g id="line2d_82">
     <path d="M 351.7575 54.570438 
L 371.7575 54.570438 
" style="fill:none;stroke:#1f77b4;stroke-linecap:square;stroke-width:1.5;"/>
    </g>
    <g id="line2d_83"/>
    <g id="text_17">
     <!-- HALP -->
     <defs>
      <path d="M 9.8125 72.90625 
L 19.671875 72.90625 
L 19.671875 43.015625 
L 55.515625 43.015625 
L 55.515625 72.90625 
L 65.375 72.90625 
L 65.375 0 
L 55.515625 0 
L 55.515625 34.71875 
L 19.671875 34.71875 
L 19.671875 0 
L 9.8125 0 
z
" id="DejaVuSans-48"/>
      <path d="M 34.1875 63.1875 
L 20.796875 26.90625 
L 47.609375 26.90625 
z
M 28.609375 72.90625 
L 39.796875 72.90625 
L 67.578125 0 
L 57.328125 0 
L 50.6875 18.703125 
L 17.828125 18.703125 
L 11.1875 0 
L 0.78125 0 
z
" id="DejaVuSans-41"/>
      <path d="M 9.8125 72.90625 
L 19.671875 72.90625 
L 19.671875 8.296875 
L 55.171875 8.296875 
L 55.171875 0 
L 9.8125 0 
z
" id="DejaVuSans-4c"/>
      <path d="M 19.671875 64.796875 
L 19.671875 37.40625 
L 32.078125 37.40625 
Q 38.96875 37.40625 42.71875 40.96875 
Q 46.484375 44.53125 46.484375 51.125 
Q 46.484375 57.671875 42.71875 61.234375 
Q 38.96875 64.796875 32.078125 64.796875 
z
M 9.8125 72.90625 
L 32.078125 72.90625 
Q 44.34375 72.90625 50.609375 67.359375 
Q 56.890625 61.8125 56.890625 51.125 
Q 56.890625 40.328125 50.609375 34.8125 
Q 44.34375 29.296875 32.078125 29.296875 
L 19.671875 29.296875 
L 19.671875 0 
L 9.8125 0 
z
" id="DejaVuSans-50"/>
     </defs>
     <g transform="translate(379.7575 58.070438)scale(0.1 -0.1)">
      <use xlink:href="#DejaVuSans-48"/>
      <use x="75.195312" xlink:href="#DejaVuSans-41"/>
      <use x="143.603516" xlink:href="#DejaVuSans-4c"/>
      <use x="199.316406" xlink:href="#DejaVuSans-50"/>
     </g>
    </g>
   </g>
  </g>
 </g>
 <defs>
  <clipPath id="p78c8a78f2b">
   <rect height="266.112" width="357.12" x="57.6" y="41.472"/>
  </clipPath>
 </defs>
</svg>
