<?xml version="1.0" encoding="utf-8" standalone="no"?>
<!DOCTYPE svg PUBLIC "-//W3C//DTD SVG 1.1//EN"
  "http://www.w3.org/Graphics/SVG/1.1/DTD/svg11.dtd">
<!-- Created with matplotlib (http://matplotlib.org/) -->
<svg height="345.6pt" version="1.1" viewBox="0 0 460.8 345.6" width="460.8pt" xmlns="http://www.w3.org/2000/svg" xmlns:xlink="http://www.w3.org/1999/xlink">
 <defs>
  <style type="text/css">
*{stroke-linecap:butt;stroke-linejoin:round;}
  </style>
 </defs>
 <g id="figure_1">
  <g id="patch_1">
   <path d="M 0 345.6 
L 460.8 345.6 
L 460.8 0 
L 0 0 
z
" style="fill:#ffffff;"/>
  </g>
  <g id="axes_1">
   <g id="patch_2">
    <path d="M 57.6 307.584 
L 414.72 307.584 
L 414.72 41.472 
L 57.6 41.472 
z
" style="fill:#ffffff;"/>
   </g>
   <g id="matplotlib.axis_1">
    <g id="xtick_1">
     <g id="line2d_1">
      <defs>
       <path d="M 0 0 
L 0 3.5 
" id="mbffdbf1b25" style="stroke:#000000;stroke-width:0.8;"/>
      </defs>
      <g>
       <use style="stroke:#000000;stroke-width:0.8;" x="73.832727" xlink:href="#mbffdbf1b25" y="307.584"/>
      </g>
     </g>
     <g id="text_1">
      <!-- 0 -->
      <defs>
       <path d="M 31.78125 66.40625 
Q 24.171875 66.40625 20.328125 58.90625 
Q 16.5 51.421875 16.5 36.375 
Q 16.5 21.390625 20.328125 13.890625 
Q 24.171875 6.390625 31.78125 6.390625 
Q 39.453125 6.390625 43.28125 13.890625 
Q 47.125 21.390625 47.125 36.375 
Q 47.125 51.421875 43.28125 58.90625 
Q 39.453125 66.40625 31.78125 66.40625 
z
M 31.78125 74.21875 
Q 44.046875 74.21875 50.515625 64.515625 
Q 56.984375 54.828125 56.984375 36.375 
Q 56.984375 17.96875 50.515625 8.265625 
Q 44.046875 -1.421875 31.78125 -1.421875 
Q 19.53125 -1.421875 13.0625 8.265625 
Q 6.59375 17.96875 6.59375 36.375 
Q 6.59375 54.828125 13.0625 64.515625 
Q 19.53125 74.21875 31.78125 74.21875 
z
" id="DejaVuSans-30"/>
      </defs>
      <g transform="translate(70.651477 322.182437)scale(0.1 -0.1)">
       <use xlink:href="#DejaVuSans-30"/>
      </g>
     </g>
    </g>
    <g id="xtick_2">
     <g id="line2d_2">
      <g>
       <use style="stroke:#000000;stroke-width:0.8;" x="153.094091" xlink:href="#mbffdbf1b25" y="307.584"/>
      </g>
     </g>
     <g id="text_2">
      <!-- 1000 -->
      <defs>
       <path d="M 12.40625 8.296875 
L 28.515625 8.296875 
L 28.515625 63.921875 
L 10.984375 60.40625 
L 10.984375 69.390625 
L 28.421875 72.90625 
L 38.28125 72.90625 
L 38.28125 8.296875 
L 54.390625 8.296875 
L 54.390625 0 
L 12.40625 0 
z
" id="DejaVuSans-31"/>
      </defs>
      <g transform="translate(140.369091 322.182437)scale(0.1 -0.1)">
       <use xlink:href="#DejaVuSans-31"/>
       <use x="63.623047" xlink:href="#DejaVuSans-30"/>
       <use x="127.246094" xlink:href="#DejaVuSans-30"/>
       <use x="190.869141" xlink:href="#DejaVuSans-30"/>
      </g>
     </g>
    </g>
    <g id="xtick_3">
     <g id="line2d_3">
      <g>
       <use style="stroke:#000000;stroke-width:0.8;" x="232.355455" xlink:href="#mbffdbf1b25" y="307.584"/>
      </g>
     </g>
     <g id="text_3">
      <!-- 2000 -->
      <defs>
       <path d="M 19.1875 8.296875 
L 53.609375 8.296875 
L 53.609375 0 
L 7.328125 0 
L 7.328125 8.296875 
Q 12.9375 14.109375 22.625 23.890625 
Q 32.328125 33.6875 34.8125 36.53125 
Q 39.546875 41.84375 41.421875 45.53125 
Q 43.3125 49.21875 43.3125 52.78125 
Q 43.3125 58.59375 39.234375 62.25 
Q 35.15625 65.921875 28.609375 65.921875 
Q 23.96875 65.921875 18.8125 64.3125 
Q 13.671875 62.703125 7.8125 59.421875 
L 7.8125 69.390625 
Q 13.765625 71.78125 18.9375 73 
Q 24.125 74.21875 28.421875 74.21875 
Q 39.75 74.21875 46.484375 68.546875 
Q 53.21875 62.890625 53.21875 53.421875 
Q 53.21875 48.921875 51.53125 44.890625 
Q 49.859375 40.875 45.40625 35.40625 
Q 44.1875 33.984375 37.640625 27.21875 
Q 31.109375 20.453125 19.1875 8.296875 
z
" id="DejaVuSans-32"/>
      </defs>
      <g transform="translate(219.630455 322.182437)scale(0.1 -0.1)">
       <use xlink:href="#DejaVuSans-32"/>
       <use x="63.623047" xlink:href="#DejaVuSans-30"/>
       <use x="127.246094" xlink:href="#DejaVuSans-30"/>
       <use x="190.869141" xlink:href="#DejaVuSans-30"/>
      </g>
     </g>
    </g>
    <g id="xtick_4">
     <g id="line2d_4">
      <g>
       <use style="stroke:#000000;stroke-width:0.8;" x="311.616818" xlink:href="#mbffdbf1b25" y="307.584"/>
      </g>
     </g>
     <g id="text_4">
      <!-- 3000 -->
      <defs>
       <path d="M 40.578125 39.3125 
Q 47.65625 37.796875 51.625 33 
Q 55.609375 28.21875 55.609375 21.1875 
Q 55.609375 10.40625 48.1875 4.484375 
Q 40.765625 -1.421875 27.09375 -1.421875 
Q 22.515625 -1.421875 17.65625 -0.515625 
Q 12.796875 0.390625 7.625 2.203125 
L 7.625 11.71875 
Q 11.71875 9.328125 16.59375 8.109375 
Q 21.484375 6.890625 26.8125 6.890625 
Q 36.078125 6.890625 40.9375 10.546875 
Q 45.796875 14.203125 45.796875 21.1875 
Q 45.796875 27.640625 41.28125 31.265625 
Q 36.765625 34.90625 28.71875 34.90625 
L 20.21875 34.90625 
L 20.21875 43.015625 
L 29.109375 43.015625 
Q 36.375 43.015625 40.234375 45.921875 
Q 44.09375 48.828125 44.09375 54.296875 
Q 44.09375 59.90625 40.109375 62.90625 
Q 36.140625 65.921875 28.71875 65.921875 
Q 24.65625 65.921875 20.015625 65.03125 
Q 15.375 64.15625 9.8125 62.3125 
L 9.8125 71.09375 
Q 15.4375 72.65625 20.34375 73.4375 
Q 25.25 74.21875 29.59375 74.21875 
Q 40.828125 74.21875 47.359375 69.109375 
Q 53.90625 64.015625 53.90625 55.328125 
Q 53.90625 49.265625 50.4375 45.09375 
Q 46.96875 40.921875 40.578125 39.3125 
z
" id="DejaVuSans-33"/>
      </defs>
      <g transform="translate(298.891818 322.182437)scale(0.1 -0.1)">
       <use xlink:href="#DejaVuSans-33"/>
       <use x="63.623047" xlink:href="#DejaVuSans-30"/>
       <use x="127.246094" xlink:href="#DejaVuSans-30"/>
       <use x="190.869141" xlink:href="#DejaVuSans-30"/>
      </g>
     </g>
    </g>
    <g id="xtick_5">
     <g id="line2d_5">
      <g>
       <use style="stroke:#000000;stroke-width:0.8;" x="390.878182" xlink:href="#mbffdbf1b25" y="307.584"/>
      </g>
     </g>
     <g id="text_5">
      <!-- 4000 -->
      <defs>
       <path d="M 37.796875 64.3125 
L 12.890625 25.390625 
L 37.796875 25.390625 
z
M 35.203125 72.90625 
L 47.609375 72.90625 
L 47.609375 25.390625 
L 58.015625 25.390625 
L 58.015625 17.1875 
L 47.609375 17.1875 
L 47.609375 0 
L 37.796875 0 
L 37.796875 17.1875 
L 4.890625 17.1875 
L 4.890625 26.703125 
z
" id="DejaVuSans-34"/>
      </defs>
      <g transform="translate(378.153182 322.182437)scale(0.1 -0.1)">
       <use xlink:href="#DejaVuSans-34"/>
       <use x="63.623047" xlink:href="#DejaVuSans-30"/>
       <use x="127.246094" xlink:href="#DejaVuSans-30"/>
       <use x="190.869141" xlink:href="#DejaVuSans-30"/>
      </g>
     </g>
    </g>
    <g id="text_6">
     <!-- Iterations -->
     <defs>
      <path d="M 9.8125 72.90625 
L 19.671875 72.90625 
L 19.671875 0 
L 9.8125 0 
z
" id="DejaVuSans-49"/>
      <path d="M 18.3125 70.21875 
L 18.3125 54.6875 
L 36.8125 54.6875 
L 36.8125 47.703125 
L 18.3125 47.703125 
L 18.3125 18.015625 
Q 18.3125 11.328125 20.140625 9.421875 
Q 21.96875 7.515625 27.59375 7.515625 
L 36.8125 7.515625 
L 36.8125 0 
L 27.59375 0 
Q 17.1875 0 13.234375 3.875 
Q 9.28125 7.765625 9.28125 18.015625 
L 9.28125 47.703125 
L 2.6875 47.703125 
L 2.6875 54.6875 
L 9.28125 54.6875 
L 9.28125 70.21875 
z
" id="DejaVuSans-74"/>
      <path d="M 56.203125 29.59375 
L 56.203125 25.203125 
L 14.890625 25.203125 
Q 15.484375 15.921875 20.484375 11.0625 
Q 25.484375 6.203125 34.421875 6.203125 
Q 39.59375 6.203125 44.453125 7.46875 
Q 49.3125 8.734375 54.109375 11.28125 
L 54.109375 2.78125 
Q 49.265625 0.734375 44.1875 -0.34375 
Q 39.109375 -1.421875 33.890625 -1.421875 
Q 20.796875 -1.421875 13.15625 6.1875 
Q 5.515625 13.8125 5.515625 26.8125 
Q 5.515625 40.234375 12.765625 48.109375 
Q 20.015625 56 32.328125 56 
Q 43.359375 56 49.78125 48.890625 
Q 56.203125 41.796875 56.203125 29.59375 
z
M 47.21875 32.234375 
Q 47.125 39.59375 43.09375 43.984375 
Q 39.0625 48.390625 32.421875 48.390625 
Q 24.90625 48.390625 20.390625 44.140625 
Q 15.875 39.890625 15.1875 32.171875 
z
" id="DejaVuSans-65"/>
      <path d="M 41.109375 46.296875 
Q 39.59375 47.171875 37.8125 47.578125 
Q 36.03125 48 33.890625 48 
Q 26.265625 48 22.1875 43.046875 
Q 18.109375 38.09375 18.109375 28.8125 
L 18.109375 0 
L 9.078125 0 
L 9.078125 54.6875 
L 18.109375 54.6875 
L 18.109375 46.1875 
Q 20.953125 51.171875 25.484375 53.578125 
Q 30.03125 56 36.53125 56 
Q 37.453125 56 38.578125 55.875 
Q 39.703125 55.765625 41.0625 55.515625 
z
" id="DejaVuSans-72"/>
      <path d="M 34.28125 27.484375 
Q 23.390625 27.484375 19.1875 25 
Q 14.984375 22.515625 14.984375 16.5 
Q 14.984375 11.71875 18.140625 8.90625 
Q 21.296875 6.109375 26.703125 6.109375 
Q 34.1875 6.109375 38.703125 11.40625 
Q 43.21875 16.703125 43.21875 25.484375 
L 43.21875 27.484375 
z
M 52.203125 31.203125 
L 52.203125 0 
L 43.21875 0 
L 43.21875 8.296875 
Q 40.140625 3.328125 35.546875 0.953125 
Q 30.953125 -1.421875 24.3125 -1.421875 
Q 15.921875 -1.421875 10.953125 3.296875 
Q 6 8.015625 6 15.921875 
Q 6 25.140625 12.171875 29.828125 
Q 18.359375 34.515625 30.609375 34.515625 
L 43.21875 34.515625 
L 43.21875 35.40625 
Q 43.21875 41.609375 39.140625 45 
Q 35.0625 48.390625 27.6875 48.390625 
Q 23 48.390625 18.546875 47.265625 
Q 14.109375 46.140625 10.015625 43.890625 
L 10.015625 52.203125 
Q 14.9375 54.109375 19.578125 55.046875 
Q 24.21875 56 28.609375 56 
Q 40.484375 56 46.34375 49.84375 
Q 52.203125 43.703125 52.203125 31.203125 
z
" id="DejaVuSans-61"/>
      <path d="M 9.421875 54.6875 
L 18.40625 54.6875 
L 18.40625 0 
L 9.421875 0 
z
M 9.421875 75.984375 
L 18.40625 75.984375 
L 18.40625 64.59375 
L 9.421875 64.59375 
z
" id="DejaVuSans-69"/>
      <path d="M 30.609375 48.390625 
Q 23.390625 48.390625 19.1875 42.75 
Q 14.984375 37.109375 14.984375 27.296875 
Q 14.984375 17.484375 19.15625 11.84375 
Q 23.34375 6.203125 30.609375 6.203125 
Q 37.796875 6.203125 41.984375 11.859375 
Q 46.1875 17.53125 46.1875 27.296875 
Q 46.1875 37.015625 41.984375 42.703125 
Q 37.796875 48.390625 30.609375 48.390625 
z
M 30.609375 56 
Q 42.328125 56 49.015625 48.375 
Q 55.71875 40.765625 55.71875 27.296875 
Q 55.71875 13.875 49.015625 6.21875 
Q 42.328125 -1.421875 30.609375 -1.421875 
Q 18.84375 -1.421875 12.171875 6.21875 
Q 5.515625 13.875 5.515625 27.296875 
Q 5.515625 40.765625 12.171875 48.375 
Q 18.84375 56 30.609375 56 
z
" id="DejaVuSans-6f"/>
      <path d="M 54.890625 33.015625 
L 54.890625 0 
L 45.90625 0 
L 45.90625 32.71875 
Q 45.90625 40.484375 42.875 44.328125 
Q 39.84375 48.1875 33.796875 48.1875 
Q 26.515625 48.1875 22.3125 43.546875 
Q 18.109375 38.921875 18.109375 30.90625 
L 18.109375 0 
L 9.078125 0 
L 9.078125 54.6875 
L 18.109375 54.6875 
L 18.109375 46.1875 
Q 21.34375 51.125 25.703125 53.5625 
Q 30.078125 56 35.796875 56 
Q 45.21875 56 50.046875 50.171875 
Q 54.890625 44.34375 54.890625 33.015625 
z
" id="DejaVuSans-6e"/>
      <path d="M 44.28125 53.078125 
L 44.28125 44.578125 
Q 40.484375 46.53125 36.375 47.5 
Q 32.28125 48.484375 27.875 48.484375 
Q 21.1875 48.484375 17.84375 46.4375 
Q 14.5 44.390625 14.5 40.28125 
Q 14.5 37.15625 16.890625 35.375 
Q 19.28125 33.59375 26.515625 31.984375 
L 29.59375 31.296875 
Q 39.15625 29.25 43.1875 25.515625 
Q 47.21875 21.78125 47.21875 15.09375 
Q 47.21875 7.46875 41.1875 3.015625 
Q 35.15625 -1.421875 24.609375 -1.421875 
Q 20.21875 -1.421875 15.453125 -0.5625 
Q 10.6875 0.296875 5.421875 2 
L 5.421875 11.28125 
Q 10.40625 8.6875 15.234375 7.390625 
Q 20.0625 6.109375 24.8125 6.109375 
Q 31.15625 6.109375 34.5625 8.28125 
Q 37.984375 10.453125 37.984375 14.40625 
Q 37.984375 18.0625 35.515625 20.015625 
Q 33.0625 21.96875 24.703125 23.78125 
L 21.578125 24.515625 
Q 13.234375 26.265625 9.515625 29.90625 
Q 5.8125 33.546875 5.8125 39.890625 
Q 5.8125 47.609375 11.28125 51.796875 
Q 16.75 56 26.8125 56 
Q 31.78125 56 36.171875 55.265625 
Q 40.578125 54.546875 44.28125 53.078125 
z
" id="DejaVuSans-73"/>
     </defs>
     <g transform="translate(212.346719 335.860562)scale(0.1 -0.1)">
      <use xlink:href="#DejaVuSans-49"/>
      <use x="29.492188" xlink:href="#DejaVuSans-74"/>
      <use x="68.701172" xlink:href="#DejaVuSans-65"/>
      <use x="130.224609" xlink:href="#DejaVuSans-72"/>
      <use x="171.337891" xlink:href="#DejaVuSans-61"/>
      <use x="232.617188" xlink:href="#DejaVuSans-74"/>
      <use x="271.826172" xlink:href="#DejaVuSans-69"/>
      <use x="299.609375" xlink:href="#DejaVuSans-6f"/>
      <use x="360.791016" xlink:href="#DejaVuSans-6e"/>
      <use x="424.169922" xlink:href="#DejaVuSans-73"/>
     </g>
    </g>
   </g>
   <g id="matplotlib.axis_2">
    <g id="ytick_1">
     <g id="line2d_6">
      <defs>
       <path d="M 0 0 
L -3.5 0 
" id="mf53aadc7e9" style="stroke:#000000;stroke-width:0.8;"/>
      </defs>
      <g>
       <use style="stroke:#000000;stroke-width:0.8;" x="57.6" xlink:href="#mf53aadc7e9" y="280.207719"/>
      </g>
     </g>
     <g id="text_7">
      <!-- $\mathdefault{10^{4}}$ -->
      <g transform="translate(33 284.006937)scale(0.1 -0.1)">
       <use transform="translate(0 0.684375)" xlink:href="#DejaVuSans-31"/>
       <use transform="translate(63.623047 0.684375)" xlink:href="#DejaVuSans-30"/>
       <use transform="translate(128.203125 38.965625)scale(0.7)" xlink:href="#DejaVuSans-34"/>
      </g>
     </g>
    </g>
    <g id="ytick_2">
     <g id="line2d_7">
      <g>
       <use style="stroke:#000000;stroke-width:0.8;" x="57.6" xlink:href="#mf53aadc7e9" y="246.255022"/>
      </g>
     </g>
     <g id="text_8">
      <!-- $\mathdefault{10^{9}}$ -->
      <defs>
       <path d="M 10.984375 1.515625 
L 10.984375 10.5 
Q 14.703125 8.734375 18.5 7.8125 
Q 22.3125 6.890625 25.984375 6.890625 
Q 35.75 6.890625 40.890625 13.453125 
Q 46.046875 20.015625 46.78125 33.40625 
Q 43.953125 29.203125 39.59375 26.953125 
Q 35.25 24.703125 29.984375 24.703125 
Q 19.046875 24.703125 12.671875 31.3125 
Q 6.296875 37.9375 6.296875 49.421875 
Q 6.296875 60.640625 12.9375 67.421875 
Q 19.578125 74.21875 30.609375 74.21875 
Q 43.265625 74.21875 49.921875 64.515625 
Q 56.59375 54.828125 56.59375 36.375 
Q 56.59375 19.140625 48.40625 8.859375 
Q 40.234375 -1.421875 26.421875 -1.421875 
Q 22.703125 -1.421875 18.890625 -0.6875 
Q 15.09375 0.046875 10.984375 1.515625 
z
M 30.609375 32.421875 
Q 37.25 32.421875 41.125 36.953125 
Q 45.015625 41.5 45.015625 49.421875 
Q 45.015625 57.28125 41.125 61.84375 
Q 37.25 66.40625 30.609375 66.40625 
Q 23.96875 66.40625 20.09375 61.84375 
Q 16.21875 57.28125 16.21875 49.421875 
Q 16.21875 41.5 20.09375 36.953125 
Q 23.96875 32.421875 30.609375 32.421875 
z
" id="DejaVuSans-39"/>
      </defs>
      <g transform="translate(33 250.054241)scale(0.1 -0.1)">
       <use transform="translate(0 0.765625)" xlink:href="#DejaVuSans-31"/>
       <use transform="translate(63.623047 0.765625)" xlink:href="#DejaVuSans-30"/>
       <use transform="translate(128.203125 39.046875)scale(0.7)" xlink:href="#DejaVuSans-39"/>
      </g>
     </g>
    </g>
    <g id="ytick_3">
     <g id="line2d_8">
      <g>
       <use style="stroke:#000000;stroke-width:0.8;" x="57.6" xlink:href="#mf53aadc7e9" y="212.302325"/>
      </g>
     </g>
     <g id="text_9">
      <!-- $\mathdefault{10^{14}}$ -->
      <g transform="translate(28.5 216.101544)scale(0.1 -0.1)">
       <use transform="translate(0 0.684375)" xlink:href="#DejaVuSans-31"/>
       <use transform="translate(63.623047 0.684375)" xlink:href="#DejaVuSans-30"/>
       <use transform="translate(128.203125 38.965625)scale(0.7)" xlink:href="#DejaVuSans-31"/>
       <use transform="translate(172.739258 38.965625)scale(0.7)" xlink:href="#DejaVuSans-34"/>
      </g>
     </g>
    </g>
    <g id="ytick_4">
     <g id="line2d_9">
      <g>
       <use style="stroke:#000000;stroke-width:0.8;" x="57.6" xlink:href="#mf53aadc7e9" y="178.349629"/>
      </g>
     </g>
     <g id="text_10">
      <!-- $\mathdefault{10^{19}}$ -->
      <g transform="translate(28.5 182.148848)scale(0.1 -0.1)">
       <use transform="translate(0 0.765625)" xlink:href="#DejaVuSans-31"/>
       <use transform="translate(63.623047 0.765625)" xlink:href="#DejaVuSans-30"/>
       <use transform="translate(128.203125 39.046875)scale(0.7)" xlink:href="#DejaVuSans-31"/>
       <use transform="translate(172.739258 39.046875)scale(0.7)" xlink:href="#DejaVuSans-39"/>
      </g>
     </g>
    </g>
    <g id="ytick_5">
     <g id="line2d_10">
      <g>
       <use style="stroke:#000000;stroke-width:0.8;" x="57.6" xlink:href="#mf53aadc7e9" y="144.396932"/>
      </g>
     </g>
     <g id="text_11">
      <!-- $\mathdefault{10^{24}}$ -->
      <g transform="translate(28.5 148.196151)scale(0.1 -0.1)">
       <use transform="translate(0 0.765625)" xlink:href="#DejaVuSans-31"/>
       <use transform="translate(63.623047 0.765625)" xlink:href="#DejaVuSans-30"/>
       <use transform="translate(128.203125 39.046875)scale(0.7)" xlink:href="#DejaVuSans-32"/>
       <use transform="translate(172.739258 39.046875)scale(0.7)" xlink:href="#DejaVuSans-34"/>
      </g>
     </g>
    </g>
    <g id="ytick_6">
     <g id="line2d_11">
      <g>
       <use style="stroke:#000000;stroke-width:0.8;" x="57.6" xlink:href="#mf53aadc7e9" y="110.444236"/>
      </g>
     </g>
     <g id="text_12">
      <!-- $\mathdefault{10^{29}}$ -->
      <g transform="translate(28.6 114.243454)scale(0.1 -0.1)">
       <use transform="translate(0 0.765625)" xlink:href="#DejaVuSans-31"/>
       <use transform="translate(63.623047 0.765625)" xlink:href="#DejaVuSans-30"/>
       <use transform="translate(128.203125 39.046875)scale(0.7)" xlink:href="#DejaVuSans-32"/>
       <use transform="translate(172.72832 39.046875)scale(0.7)" xlink:href="#DejaVuSans-39"/>
      </g>
     </g>
    </g>
    <g id="ytick_7">
     <g id="line2d_12">
      <g>
       <use style="stroke:#000000;stroke-width:0.8;" x="57.6" xlink:href="#mf53aadc7e9" y="76.491539"/>
      </g>
     </g>
     <g id="text_13">
      <!-- $\mathdefault{10^{34}}$ -->
      <g transform="translate(28.5 80.290758)scale(0.1 -0.1)">
       <use transform="translate(0 0.765625)" xlink:href="#DejaVuSans-31"/>
       <use transform="translate(63.623047 0.765625)" xlink:href="#DejaVuSans-30"/>
       <use transform="translate(128.203125 39.046875)scale(0.7)" xlink:href="#DejaVuSans-33"/>
       <use transform="translate(172.739258 39.046875)scale(0.7)" xlink:href="#DejaVuSans-34"/>
      </g>
     </g>
    </g>
    <g id="ytick_8">
     <g id="line2d_13">
      <g>
       <use style="stroke:#000000;stroke-width:0.8;" x="57.6" xlink:href="#mf53aadc7e9" y="42.538843"/>
      </g>
     </g>
     <g id="text_14">
      <!-- $\mathdefault{10^{39}}$ -->
      <g transform="translate(28.5 46.338061)scale(0.1 -0.1)">
       <use transform="translate(0 0.765625)" xlink:href="#DejaVuSans-31"/>
       <use transform="translate(63.623047 0.765625)" xlink:href="#DejaVuSans-30"/>
       <use transform="translate(128.203125 39.046875)scale(0.7)" xlink:href="#DejaVuSans-33"/>
       <use transform="translate(172.739258 39.046875)scale(0.7)" xlink:href="#DejaVuSans-39"/>
      </g>
     </g>
    </g>
    <g id="text_15">
     <!-- Distance to Optimum -->
     <defs>
      <path d="M 19.671875 64.796875 
L 19.671875 8.109375 
L 31.59375 8.109375 
Q 46.6875 8.109375 53.6875 14.9375 
Q 60.6875 21.78125 60.6875 36.53125 
Q 60.6875 51.171875 53.6875 57.984375 
Q 46.6875 64.796875 31.59375 64.796875 
z
M 9.8125 72.90625 
L 30.078125 72.90625 
Q 51.265625 72.90625 61.171875 64.09375 
Q 71.09375 55.28125 71.09375 36.53125 
Q 71.09375 17.671875 61.125 8.828125 
Q 51.171875 0 30.078125 0 
L 9.8125 0 
z
" id="DejaVuSans-44"/>
      <path d="M 48.78125 52.59375 
L 48.78125 44.1875 
Q 44.96875 46.296875 41.140625 47.34375 
Q 37.3125 48.390625 33.40625 48.390625 
Q 24.65625 48.390625 19.8125 42.84375 
Q 14.984375 37.3125 14.984375 27.296875 
Q 14.984375 17.28125 19.8125 11.734375 
Q 24.65625 6.203125 33.40625 6.203125 
Q 37.3125 6.203125 41.140625 7.25 
Q 44.96875 8.296875 48.78125 10.40625 
L 48.78125 2.09375 
Q 45.015625 0.34375 40.984375 -0.53125 
Q 36.96875 -1.421875 32.421875 -1.421875 
Q 20.0625 -1.421875 12.78125 6.34375 
Q 5.515625 14.109375 5.515625 27.296875 
Q 5.515625 40.671875 12.859375 48.328125 
Q 20.21875 56 33.015625 56 
Q 37.15625 56 41.109375 55.140625 
Q 45.0625 54.296875 48.78125 52.59375 
z
" id="DejaVuSans-63"/>
      <path id="DejaVuSans-20"/>
      <path d="M 39.40625 66.21875 
Q 28.65625 66.21875 22.328125 58.203125 
Q 16.015625 50.203125 16.015625 36.375 
Q 16.015625 22.609375 22.328125 14.59375 
Q 28.65625 6.59375 39.40625 6.59375 
Q 50.140625 6.59375 56.421875 14.59375 
Q 62.703125 22.609375 62.703125 36.375 
Q 62.703125 50.203125 56.421875 58.203125 
Q 50.140625 66.21875 39.40625 66.21875 
z
M 39.40625 74.21875 
Q 54.734375 74.21875 63.90625 63.9375 
Q 73.09375 53.65625 73.09375 36.375 
Q 73.09375 19.140625 63.90625 8.859375 
Q 54.734375 -1.421875 39.40625 -1.421875 
Q 24.03125 -1.421875 14.8125 8.828125 
Q 5.609375 19.09375 5.609375 36.375 
Q 5.609375 53.65625 14.8125 63.9375 
Q 24.03125 74.21875 39.40625 74.21875 
z
" id="DejaVuSans-4f"/>
      <path d="M 18.109375 8.203125 
L 18.109375 -20.796875 
L 9.078125 -20.796875 
L 9.078125 54.6875 
L 18.109375 54.6875 
L 18.109375 46.390625 
Q 20.953125 51.265625 25.265625 53.625 
Q 29.59375 56 35.59375 56 
Q 45.5625 56 51.78125 48.09375 
Q 58.015625 40.1875 58.015625 27.296875 
Q 58.015625 14.40625 51.78125 6.484375 
Q 45.5625 -1.421875 35.59375 -1.421875 
Q 29.59375 -1.421875 25.265625 0.953125 
Q 20.953125 3.328125 18.109375 8.203125 
z
M 48.6875 27.296875 
Q 48.6875 37.203125 44.609375 42.84375 
Q 40.53125 48.484375 33.40625 48.484375 
Q 26.265625 48.484375 22.1875 42.84375 
Q 18.109375 37.203125 18.109375 27.296875 
Q 18.109375 17.390625 22.1875 11.75 
Q 26.265625 6.109375 33.40625 6.109375 
Q 40.53125 6.109375 44.609375 11.75 
Q 48.6875 17.390625 48.6875 27.296875 
z
" id="DejaVuSans-70"/>
      <path d="M 52 44.1875 
Q 55.375 50.25 60.0625 53.125 
Q 64.75 56 71.09375 56 
Q 79.640625 56 84.28125 50.015625 
Q 88.921875 44.046875 88.921875 33.015625 
L 88.921875 0 
L 79.890625 0 
L 79.890625 32.71875 
Q 79.890625 40.578125 77.09375 44.375 
Q 74.3125 48.1875 68.609375 48.1875 
Q 61.625 48.1875 57.5625 43.546875 
Q 53.515625 38.921875 53.515625 30.90625 
L 53.515625 0 
L 44.484375 0 
L 44.484375 32.71875 
Q 44.484375 40.625 41.703125 44.40625 
Q 38.921875 48.1875 33.109375 48.1875 
Q 26.21875 48.1875 22.15625 43.53125 
Q 18.109375 38.875 18.109375 30.90625 
L 18.109375 0 
L 9.078125 0 
L 9.078125 54.6875 
L 18.109375 54.6875 
L 18.109375 46.1875 
Q 21.1875 51.21875 25.484375 53.609375 
Q 29.78125 56 35.6875 56 
Q 41.65625 56 45.828125 52.96875 
Q 50 49.953125 52 44.1875 
z
" id="DejaVuSans-6d"/>
      <path d="M 8.5 21.578125 
L 8.5 54.6875 
L 17.484375 54.6875 
L 17.484375 21.921875 
Q 17.484375 14.15625 20.5 10.265625 
Q 23.53125 6.390625 29.59375 6.390625 
Q 36.859375 6.390625 41.078125 11.03125 
Q 45.3125 15.671875 45.3125 23.6875 
L 45.3125 54.6875 
L 54.296875 54.6875 
L 54.296875 0 
L 45.3125 0 
L 45.3125 8.40625 
Q 42.046875 3.421875 37.71875 1 
Q 33.40625 -1.421875 27.6875 -1.421875 
Q 18.265625 -1.421875 13.375 4.4375 
Q 8.5 10.296875 8.5 21.578125 
z
M 31.109375 56 
z
" id="DejaVuSans-75"/>
     </defs>
     <g transform="translate(22.420312 227.956906)rotate(-90)scale(0.1 -0.1)">
      <use xlink:href="#DejaVuSans-44"/>
      <use x="77.001953" xlink:href="#DejaVuSans-69"/>
      <use x="104.785156" xlink:href="#DejaVuSans-73"/>
      <use x="156.884766" xlink:href="#DejaVuSans-74"/>
      <use x="196.09375" xlink:href="#DejaVuSans-61"/>
      <use x="257.373047" xlink:href="#DejaVuSans-6e"/>
      <use x="320.751953" xlink:href="#DejaVuSans-63"/>
      <use x="375.732422" xlink:href="#DejaVuSans-65"/>
      <use x="437.255859" xlink:href="#DejaVuSans-20"/>
      <use x="469.042969" xlink:href="#DejaVuSans-74"/>
      <use x="508.251953" xlink:href="#DejaVuSans-6f"/>
      <use x="569.433594" xlink:href="#DejaVuSans-20"/>
      <use x="601.220703" xlink:href="#DejaVuSans-4f"/>
      <use x="679.931641" xlink:href="#DejaVuSans-70"/>
      <use x="743.408203" xlink:href="#DejaVuSans-74"/>
      <use x="782.617188" xlink:href="#DejaVuSans-69"/>
      <use x="810.400391" xlink:href="#DejaVuSans-6d"/>
      <use x="907.8125" xlink:href="#DejaVuSans-75"/>
      <use x="971.191406" xlink:href="#DejaVuSans-6d"/>
     </g>
    </g>
   </g>
   <g id="line2d_14">
    <path clip-path="url(#p32f3b1ed23)" d="M 73.832727 293.102039 
L 74.149773 293.314816 
L 74.466818 293.857128 
L 74.625341 293.725138 
L 74.704602 293.580555 
L 75.18017 294.181552 
L 75.259432 294.138292 
L 75.497216 294.396832 
L 75.655739 294.321945 
L 75.972784 294.954314 
L 76.131307 294.834341 
L 76.448352 294.168811 
L 76.606875 294.030929 
L 76.844659 293.972868 
L 77.003182 293.956246 
L 77.240966 294.137344 
L 77.637273 294.885112 
L 77.875057 294.956046 
L 78.03358 294.902537 
L 78.746932 294.082877 
L 78.984716 293.942487 
L 79.381023 293.11466 
L 79.460284 293.229302 
L 79.618807 293.619487 
L 80.173636 295.488 
L 80.252898 295.460373 
L 80.41142 295.049466 
L 80.96625 293.367474 
L 81.204034 293.27616 
L 81.441818 293.362098 
L 81.679602 294.076365 
L 82.15517 291.705114 
L 82.472216 290.451288 
L 82.789261 290.275824 
L 83.027045 290.984778 
L 83.344091 292.574243 
L 83.502614 291.80166 
L 83.819659 290.198955 
L 84.215966 289.305529 
L 84.374489 289.344115 
L 84.770795 290.208379 
L 84.929318 290.714497 
L 85.167102 292.162126 
L 85.325625 292.628259 
L 85.801193 290.38483 
L 86.1975 289.333901 
L 86.356023 289.259054 
L 87.069375 288.341319 
L 87.544943 291.740401 
L 87.624205 291.412994 
L 88.020511 288.483962 
L 88.258295 287.926592 
L 88.733864 287.75677 
L 88.971648 288.024314 
L 89.288693 288.540677 
L 89.367955 288.848761 
L 89.526477 290.197622 
L 89.605739 289.892403 
L 90.002045 286.760296 
L 90.398352 285.543482 
L 90.636136 285.341024 
L 90.715398 285.43117 
L 90.953182 286.630344 
L 91.190966 288.778066 
L 91.270227 288.602284 
L 91.745795 285.267825 
L 92.062841 284.447036 
L 92.221364 284.358151 
L 92.379886 284.460328 
L 92.855455 285.962419 
L 93.093239 287.372882 
L 93.251761 288.317662 
L 93.410284 287.433387 
L 93.965114 284.70869 
L 94.519943 283.456847 
L 94.995511 283.119152 
L 95.233295 284.956331 
L 95.47108 288.316964 
L 95.946648 283.391932 
L 96.263693 282.538715 
L 96.739261 281.963647 
L 97.135568 282.409501 
L 97.21483 282.564968 
L 97.294091 282.984707 
L 97.452614 285.035077 
L 97.531875 284.697219 
L 97.84892 281.200527 
L 98.245227 279.626979 
L 98.483011 279.17592 
L 98.641534 279.314385 
L 98.879318 280.502578 
L 99.117102 283.065246 
L 99.196364 282.935869 
L 99.59267 279.515418 
L 99.909716 278.508354 
L 100.1475 278.432477 
L 100.306023 278.592828 
L 100.860852 280.380713 
L 101.177898 281.613812 
L 102.366818 277.477469 
L 102.604602 277.135649 
L 102.921648 276.927317 
L 103.159432 278.83796 
L 103.397216 283.076085 
L 103.476477 281.559667 
L 103.714261 278.138503 
L 104.031307 276.662576 
L 104.586136 275.847558 
L 104.744659 275.874898 
L 104.982443 276.136829 
L 105.140966 276.40588 
L 105.220227 276.819025 
L 105.37875 279.01961 
L 105.458011 278.666334 
L 105.775057 275.013981 
L 106.171364 273.44797 
L 106.409148 273.000247 
L 106.56767 273.123722 
L 106.805455 274.325376 
L 107.043239 277.023319 
L 107.1225 276.901413 
L 107.439545 273.784005 
L 107.756591 272.51631 
L 107.994375 272.252894 
L 108.232159 272.473716 
L 108.786989 274.257206 
L 109.104034 275.443285 
L 109.896648 272.304641 
L 110.451477 271.089067 
L 110.847784 270.789562 
L 111.085568 272.675119 
L 111.323352 276.591736 
L 111.402614 275.306563 
L 111.719659 271.42804 
L 112.036705 270.422171 
L 112.591534 269.763167 
L 112.987841 270.206828 
L 113.067102 270.353387 
L 113.146364 270.753504 
L 113.304886 272.834774 
L 113.384148 272.480055 
L 113.701193 268.940215 
L 114.0975 267.400632 
L 114.335284 266.955069 
L 114.493807 267.077435 
L 114.731591 268.293908 
L 114.969375 271.071002 
L 115.048636 270.932698 
L 115.365682 267.745083 
L 115.682727 266.471976 
L 115.920511 266.211267 
L 116.158295 266.437588 
L 116.713125 268.22602 
L 117.03017 269.427206 
L 117.743523 266.482708 
L 118.298352 265.143622 
L 118.77392 264.752825 
L 119.011705 266.631222 
L 119.249489 270.439372 
L 119.32875 269.21888 
L 119.645795 265.385522 
L 119.962841 264.39011 
L 120.51767 263.742256 
L 120.913977 264.187252 
L 120.993239 264.332372 
L 121.0725 264.730166 
L 121.231023 266.785372 
L 121.310284 266.428753 
L 121.62733 262.913593 
L 122.023636 261.379584 
L 122.26142 260.934393 
L 122.419943 261.05693 
L 122.657727 262.277594 
L 122.895511 265.080948 
L 122.974773 264.937174 
L 123.291818 261.725806 
L 123.608864 260.452687 
L 123.846648 260.194434 
L 124.084432 260.423751 
L 124.639261 262.213778 
L 124.956307 263.411534 
L 125.669659 260.465123 
L 126.224489 259.128368 
L 126.700057 258.735214 
L 126.937841 260.611739 
L 127.175625 264.389246 
L 127.254886 263.185992 
L 127.571932 259.366176 
L 127.888977 258.374521 
L 128.443807 257.730411 
L 128.840114 258.175706 
L 128.919375 258.320314 
L 128.998636 258.717258 
L 129.157159 260.764895 
L 129.23642 260.407564 
L 129.553466 256.899436 
L 129.949773 255.36742 
L 130.187557 254.922375 
L 130.34608 255.04482 
L 130.583864 256.267036 
L 130.821648 259.080904 
L 130.900909 258.935305 
L 131.217955 255.714235 
L 131.535 254.441306 
L 131.772784 254.184098 
L 132.010568 254.414728 
L 132.565398 256.205219 
L 132.803182 257.417081 
L 132.882443 257.401059 
L 133.595795 254.45425 
L 134.150625 253.118855 
L 134.626193 252.724652 
L 134.863977 254.600225 
L 135.101761 258.364143 
L 135.181023 257.168832 
L 135.498068 253.354922 
L 135.815114 252.364961 
L 136.369943 251.722731 
L 136.76625 252.168193 
L 136.845511 252.312545 
L 136.924773 252.709055 
L 137.083295 254.752894 
L 137.162557 254.395304 
L 137.479602 250.890712 
L 137.875909 249.359673 
L 138.113693 248.914703 
L 138.272216 249.037101 
L 138.51 250.260006 
L 138.747784 253.078415 
L 138.827045 252.931996 
L 139.144091 249.706779 
L 139.461136 248.433866 
L 139.69892 248.177056 
L 139.936705 248.408206 
L 140.491534 250.1989 
L 140.729318 251.411129 
L 140.80858 251.394197 
L 141.521932 248.446995 
L 142.076761 247.112208 
L 142.55233 246.717576 
L 142.790114 248.592734 
L 143.027898 252.350787 
L 143.107159 251.158893 
L 143.424205 247.34754 
L 143.74125 246.35829 
L 144.29608 245.716847 
L 144.692386 246.162384 
L 144.771648 246.306629 
L 144.850909 246.702959 
L 145.009432 248.745183 
L 145.088693 248.387483 
L 145.405739 244.884397 
L 145.802045 243.353764 
L 146.03983 242.908825 
L 146.198352 243.031206 
L 146.436136 244.254401 
L 146.67392 247.074705 
L 146.753182 246.927937 
L 147.070227 243.700992 
L 147.387273 242.428086 
L 147.625057 242.171441 
L 147.862841 242.402806 
L 148.41767 244.193588 
L 148.655455 245.405968 
L 148.734716 245.388662 
L 149.448068 242.441295 
L 150.002898 241.106753 
L 150.478466 240.711943 
L 150.71625 242.586933 
L 150.954034 246.342577 
L 151.033295 245.152078 
L 151.350341 241.341779 
L 151.667386 240.352823 
L 152.222216 239.7117 
L 152.618523 240.157267 
L 152.697784 240.301469 
L 152.777045 240.697725 
L 152.935568 242.739291 
L 153.01483 242.381546 
L 153.331875 238.879072 
L 153.728182 237.348606 
L 153.965966 236.903679 
L 154.124489 237.026054 
L 154.362273 238.249367 
L 154.600057 241.070457 
L 154.679318 240.923545 
L 154.996364 237.695884 
L 155.313409 236.422981 
L 155.551193 236.166405 
L 155.788977 236.397861 
L 156.343807 238.188679 
L 156.581591 239.401119 
L 156.660852 239.383655 
L 157.374205 236.436225 
L 157.929034 235.101782 
L 158.404602 234.706899 
L 158.642386 236.581818 
L 158.88017 240.336466 
L 158.959432 239.146545 
L 159.276477 235.336682 
L 159.593523 234.347847 
L 160.148352 233.706858 
L 160.544659 234.152437 
L 160.62392 234.296621 
L 160.703182 234.692847 
L 160.861705 236.734141 
L 160.940966 236.376376 
L 161.258011 232.874156 
L 161.654318 231.343759 
L 161.892102 230.898837 
L 162.050625 231.021209 
L 162.288409 232.244572 
L 162.526193 235.065988 
L 162.605455 234.919015 
L 162.9225 231.691057 
L 163.239545 230.418156 
L 163.47733 230.16161 
L 163.715114 230.393102 
L 164.269943 232.183936 
L 164.507727 233.3964 
L 164.586989 233.378871 
L 165.300341 230.431414 
L 165.85517 229.097014 
L 166.330739 228.7021 
L 166.568523 230.57699 
L 166.806307 234.331222 
L 166.885568 233.141541 
L 167.202614 229.331861 
L 167.519659 228.343077 
L 168.074489 227.702144 
L 168.470795 228.147728 
L 168.550057 228.291904 
L 168.629318 228.688117 
L 168.787841 230.729297 
L 168.867102 230.371524 
L 169.184148 226.86941 
L 169.580455 225.339042 
L 169.818239 224.894123 
L 169.976761 225.016494 
L 170.214545 226.239878 
L 170.45233 229.06143 
L 170.531591 228.914432 
L 170.848636 225.68635 
L 171.165682 224.413449 
L 171.403466 224.156915 
L 171.64125 224.388423 
L 172.19608 226.179263 
L 172.433864 227.391738 
L 172.513125 227.374182 
L 173.226477 224.426712 
L 173.781307 223.092331 
L 174.256875 222.697404 
L 174.494659 224.572281 
L 174.732443 228.326338 
L 174.811705 227.13676 
L 175.12875 223.327156 
L 175.445795 222.338393 
L 176.000625 221.697483 
L 176.396932 222.143068 
L 176.476193 222.287242 
L 176.555455 222.68345 
L 176.713977 224.724583 
L 176.793239 224.366807 
L 177.110284 220.864736 
L 177.506591 219.33438 
L 177.744375 218.889461 
L 177.902898 219.011832 
L 178.140682 220.235223 
L 178.378466 223.056832 
L 178.457727 222.909823 
L 178.774773 219.68169 
L 179.091818 218.408789 
L 179.329602 218.15226 
L 179.567386 218.383775 
L 180.122216 220.174618 
L 180.36 221.387095 
L 180.439261 221.369528 
L 181.152614 218.422056 
L 181.707443 217.08768 
L 182.183011 216.692748 
L 182.420795 218.567622 
L 182.65858 222.321611 
L 182.737841 221.13207 
L 183.054886 217.322496 
L 183.371932 216.333742 
L 183.926761 215.692843 
L 184.323068 216.138429 
L 184.40233 216.282601 
L 184.481591 216.678807 
L 184.640114 218.719919 
L 184.719375 218.362142 
L 185.03642 214.860091 
L 185.432727 213.329739 
L 185.670511 212.884821 
L 185.829034 213.007192 
L 186.066818 214.230587 
L 186.304602 217.052221 
L 186.383864 216.905208 
L 186.700909 213.677051 
L 187.017955 212.404151 
L 187.255739 212.147624 
L 187.493523 212.379142 
L 188.048352 214.169986 
L 188.286136 215.382467 
L 188.365398 215.364894 
L 189.07875 212.417418 
L 189.63358 211.083047 
L 190.109148 210.688112 
L 190.346932 212.562983 
L 190.584716 216.316937 
L 190.663977 215.127416 
L 190.981023 211.317858 
L 191.298068 210.329108 
L 191.852898 209.688213 
L 192.249205 210.1338 
L 192.328466 210.277971 
L 192.407727 210.674176 
L 192.56625 212.715279 
L 192.645511 212.357501 
L 192.962557 208.855458 
L 193.358864 207.325109 
L 193.596648 206.880191 
L 193.75517 207.002561 
L 193.992955 208.225958 
L 194.230739 211.047601 
L 194.31 210.900587 
L 194.627045 207.672422 
L 194.944091 206.399521 
L 195.181875 206.142995 
L 195.419659 206.374514 
L 195.974489 208.165359 
L 196.212273 209.37784 
L 196.291534 209.360266 
L 197.004886 206.412789 
L 197.559716 205.078419 
L 198.035284 204.683483 
L 198.273068 206.558353 
L 198.510852 210.312295 
L 198.590114 209.122784 
L 198.907159 205.31323 
L 199.224205 204.324481 
L 199.779034 203.683587 
L 200.175341 204.129174 
L 200.254602 204.273345 
L 200.333864 204.66955 
L 200.492386 206.71065 
L 200.571648 206.352872 
L 200.888693 202.850832 
L 201.285 201.320484 
L 201.522784 200.875566 
L 201.681307 200.997936 
L 201.919091 202.221333 
L 202.156875 205.04298 
L 202.236136 204.895965 
L 202.553182 201.667797 
L 202.870227 200.394897 
L 203.108011 200.138371 
L 203.345795 200.36989 
L 203.900625 202.160734 
L 204.138409 203.373215 
L 204.21767 203.35564 
L 204.931023 200.408164 
L 205.485852 199.073794 
L 205.96142 198.678858 
L 206.199205 200.553729 
L 206.436989 204.307671 
L 206.51625 203.118158 
L 206.833295 199.308605 
L 207.150341 198.319856 
L 207.70517 197.678961 
L 208.101477 198.124549 
L 208.180739 198.26872 
L 208.26 198.664924 
L 208.418523 200.706025 
L 208.497784 200.348246 
L 208.81483 196.846206 
L 209.211136 195.315858 
L 209.44892 194.870941 
L 209.607443 194.993311 
L 209.845227 196.216709 
L 210.083011 199.038356 
L 210.162273 198.891341 
L 210.479318 195.663172 
L 210.796364 194.390271 
L 211.034148 194.133746 
L 211.271932 194.365265 
L 211.826761 196.156109 
L 212.064545 197.368591 
L 212.143807 197.351015 
L 212.857159 194.40354 
L 213.411989 193.06917 
L 213.887557 192.674233 
L 214.125341 194.549103 
L 214.363125 198.303039 
L 214.442386 197.113528 
L 214.759432 193.303979 
L 215.076477 192.315232 
L 215.631307 191.674338 
L 216.027614 192.119926 
L 216.106875 192.264097 
L 216.186136 192.660301 
L 216.344659 194.7014 
L 216.42392 194.343621 
L 216.740966 190.841582 
L 217.137273 189.311234 
L 217.375057 188.866317 
L 217.53358 188.988687 
L 217.771364 190.212085 
L 218.009148 193.033734 
L 218.088409 192.886719 
L 218.405455 189.658548 
L 218.7225 188.385647 
L 218.960284 188.129122 
L 219.198068 188.360641 
L 219.752898 190.151486 
L 219.990682 191.363968 
L 220.069943 191.346393 
L 220.783295 188.398916 
L 221.338125 187.064547 
L 221.813693 186.66961 
L 222.051477 188.544479 
L 222.289261 192.298414 
L 222.368523 191.108907 
L 222.685568 187.299356 
L 223.002614 186.310608 
L 223.557443 185.669716 
L 223.95375 186.115303 
L 224.033011 186.259474 
L 224.112273 186.655679 
L 224.270795 188.696775 
L 224.350057 188.338997 
L 224.667102 184.83696 
L 225.063409 183.306613 
L 225.301193 182.861695 
L 225.459716 182.984065 
L 225.6975 184.207463 
L 225.935284 187.029112 
L 226.014545 186.882097 
L 226.331591 183.653926 
L 226.648636 182.381025 
L 226.88642 182.1245 
L 227.124205 182.356019 
L 227.679034 184.146864 
L 227.916818 185.359347 
L 227.99608 185.341771 
L 228.709432 182.394294 
L 229.264261 181.059925 
L 229.73983 180.664988 
L 229.977614 182.539857 
L 230.215398 186.293787 
L 230.294659 185.104281 
L 230.611705 181.294733 
L 230.92875 180.305986 
L 231.48358 179.665094 
L 231.879886 180.110681 
L 231.959148 180.254852 
L 232.038409 180.651056 
L 232.196932 182.692152 
L 232.276193 182.334373 
L 232.593239 178.832337 
L 232.989545 177.30199 
L 233.22733 176.857072 
L 233.385852 176.979443 
L 233.623636 178.202841 
L 233.86142 181.024491 
L 233.940682 180.877475 
L 234.257727 177.649304 
L 234.574773 176.376403 
L 234.812557 176.119878 
L 235.050341 176.351397 
L 235.60517 178.142242 
L 235.842955 179.354725 
L 235.922216 179.337149 
L 236.635568 176.389672 
L 237.190398 175.055302 
L 237.665966 174.660366 
L 237.90375 176.535236 
L 238.141534 180.289169 
L 238.220795 179.09966 
L 238.537841 175.290111 
L 238.854886 174.301364 
L 239.409716 173.660471 
L 239.806023 174.106058 
L 239.885284 174.250229 
L 239.964545 174.646433 
L 240.123068 176.68753 
L 240.20233 176.329752 
L 240.519375 172.827715 
L 240.915682 171.297367 
L 241.153466 170.85245 
L 241.311989 170.97482 
L 241.549773 172.198218 
L 241.787557 175.019867 
L 241.866818 174.872851 
L 242.183864 171.64468 
L 242.500909 170.37178 
L 242.738693 170.115254 
L 242.976477 170.346774 
L 243.531307 172.137618 
L 243.769091 173.3501 
L 243.848352 173.332524 
L 244.561705 170.385048 
L 245.116534 169.050678 
L 245.592102 168.655741 
L 245.829886 170.530611 
L 246.06767 174.284546 
L 246.146932 173.095037 
L 246.463977 169.285487 
L 246.781023 168.296739 
L 247.335852 167.655846 
L 247.732159 168.101433 
L 247.81142 168.245604 
L 247.890682 168.641809 
L 248.049205 170.682907 
L 248.128466 170.325129 
L 248.445511 166.823091 
L 248.841818 165.292742 
L 249.079602 164.847825 
L 249.238125 164.970195 
L 249.475909 166.193592 
L 249.713693 169.015241 
L 249.792955 168.868226 
L 250.11 165.640056 
L 250.427045 164.367155 
L 250.66483 164.110629 
L 250.902614 164.342148 
L 251.457443 166.132993 
L 251.695227 167.345475 
L 251.774489 167.3279 
L 252.487841 164.380423 
L 253.04267 163.046054 
L 253.518239 162.651117 
L 253.756023 164.525987 
L 253.993807 168.279924 
L 254.073068 167.090415 
L 254.390114 163.280864 
L 254.707159 162.292116 
L 255.261989 161.651222 
L 255.658295 162.096809 
L 255.737557 162.24098 
L 255.816818 162.637185 
L 255.975341 164.678283 
L 256.054602 164.320504 
L 256.371648 160.818467 
L 256.767955 159.288118 
L 257.005739 158.843201 
L 257.164261 158.965571 
L 257.402045 160.188969 
L 257.63983 163.010617 
L 257.719091 162.863602 
L 258.036136 159.635432 
L 258.353182 158.362531 
L 258.590966 158.106005 
L 258.82875 158.337525 
L 259.38358 160.128369 
L 259.621364 161.340851 
L 259.700625 161.323276 
L 260.413977 158.3758 
L 260.968807 157.04143 
L 261.444375 156.646493 
L 261.682159 158.521363 
L 261.919943 162.275297 
L 261.999205 161.085788 
L 262.31625 157.276239 
L 262.633295 156.287491 
L 263.188125 155.646598 
L 263.584432 156.092185 
L 263.663693 156.236356 
L 263.742955 156.632561 
L 263.901477 158.673659 
L 263.980739 158.31588 
L 264.297784 154.813842 
L 264.694091 153.283494 
L 264.931875 152.838576 
L 265.090398 152.960946 
L 265.328182 154.184345 
L 265.565966 157.005994 
L 265.645227 156.858978 
L 265.962273 153.630807 
L 266.279318 152.357907 
L 266.517102 152.101381 
L 266.754886 152.332901 
L 267.309716 154.123746 
L 267.5475 155.336226 
L 267.626761 155.318651 
L 268.340114 152.371175 
L 268.894943 151.036805 
L 269.370511 150.641869 
L 269.608295 152.516739 
L 269.84608 156.270678 
L 269.925341 155.081166 
L 270.242386 151.271615 
L 270.559432 150.282867 
L 271.114261 149.641973 
L 271.510568 150.08756 
L 271.58983 150.231732 
L 271.669091 150.627936 
L 271.827614 152.669035 
L 271.906875 152.311256 
L 272.22392 148.809218 
L 272.620227 147.27887 
L 272.858011 146.833952 
L 273.016534 146.956322 
L 273.254318 148.17972 
L 273.492102 151.001369 
L 273.571364 150.854353 
L 273.888409 147.626183 
L 274.205455 146.353282 
L 274.443239 146.096757 
L 274.681023 146.328277 
L 275.235852 148.119122 
L 275.473636 149.331603 
L 275.552898 149.314027 
L 276.26625 146.36655 
L 276.82108 145.032181 
L 277.296648 144.637245 
L 277.534432 146.512114 
L 277.772216 150.266047 
L 277.851477 149.076538 
L 278.168523 145.26699 
L 278.485568 144.278242 
L 279.040398 143.63735 
L 279.436705 144.082937 
L 279.515966 144.227108 
L 279.595227 144.623313 
L 279.75375 146.664409 
L 279.833011 146.30663 
L 280.150057 142.804594 
L 280.546364 141.274247 
L 280.784148 140.829329 
L 280.94267 140.951699 
L 281.180455 142.175097 
L 281.418239 144.996747 
L 281.4975 144.849732 
L 281.814545 141.62156 
L 282.131591 140.348659 
L 282.369375 140.092134 
L 282.607159 140.323653 
L 283.161989 142.114498 
L 283.399773 143.32698 
L 283.479034 143.309405 
L 284.192386 140.361928 
L 284.747216 139.027559 
L 285.222784 138.632622 
L 285.460568 140.507492 
L 285.698352 144.261423 
L 285.777614 143.071915 
L 286.094659 139.262368 
L 286.411705 138.27362 
L 286.966534 137.632728 
L 287.362841 138.078315 
L 287.442102 138.222486 
L 287.521364 138.61869 
L 287.679886 140.659786 
L 287.759148 140.302008 
L 288.076193 136.799971 
L 288.4725 135.269624 
L 288.710284 134.824706 
L 288.868807 134.947076 
L 289.106591 136.170474 
L 289.344375 138.992124 
L 289.423636 138.845108 
L 289.740682 135.616937 
L 290.057727 134.344036 
L 290.295511 134.087511 
L 290.533295 134.31903 
L 291.088125 136.109874 
L 291.325909 137.322356 
L 291.40517 137.304781 
L 292.118523 134.357304 
L 292.673352 133.022935 
L 293.14892 132.627998 
L 293.386705 134.502867 
L 293.624489 138.256804 
L 293.70375 137.067294 
L 294.020795 133.257743 
L 294.337841 132.268996 
L 294.89267 131.628103 
L 295.288977 132.07369 
L 295.368239 132.217861 
L 295.4475 132.614066 
L 295.606023 134.655163 
L 295.685284 134.297384 
L 296.00233 130.795347 
L 296.398636 129.264999 
L 296.63642 128.820082 
L 296.794943 128.942452 
L 297.032727 130.16585 
L 297.270511 132.9875 
L 297.349773 132.840484 
L 297.666818 129.612313 
L 297.983864 128.339412 
L 298.221648 128.082886 
L 298.459432 128.314406 
L 299.014261 130.105251 
L 299.252045 131.317733 
L 299.331307 131.300158 
L 300.044659 128.35268 
L 300.599489 127.018311 
L 301.075057 126.623375 
L 301.312841 128.498244 
L 301.550625 132.252177 
L 301.629886 131.062669 
L 301.946932 127.25312 
L 302.263977 126.264373 
L 302.818807 125.62348 
L 303.215114 126.069068 
L 303.294375 126.213238 
L 303.373636 126.609443 
L 303.532159 128.650539 
L 303.61142 128.292761 
L 303.928466 124.790724 
L 304.324773 123.260377 
L 304.562557 122.815459 
L 304.72108 122.937829 
L 304.958864 124.161227 
L 305.196648 126.982877 
L 305.275909 126.835861 
L 305.592955 123.60769 
L 305.91 122.334789 
L 306.147784 122.078264 
L 306.385568 122.309783 
L 306.940398 124.100627 
L 307.178182 125.31311 
L 307.257443 125.295534 
L 307.970795 122.348057 
L 308.525625 121.013688 
L 309.001193 120.618751 
L 309.238977 122.493621 
L 309.476761 126.247556 
L 309.556023 125.058047 
L 309.873068 121.248497 
L 310.190114 120.259749 
L 310.744943 119.618856 
L 311.14125 120.064443 
L 311.220511 120.208614 
L 311.299773 120.604819 
L 311.458295 122.645916 
L 311.537557 122.288138 
L 311.854602 118.7861 
L 312.250909 117.255753 
L 312.488693 116.810835 
L 312.647216 116.933205 
L 312.885 118.156603 
L 313.122784 120.978252 
L 313.202045 120.831236 
L 313.519091 117.603066 
L 313.836136 116.330165 
L 314.07392 116.073639 
L 314.311705 116.305159 
L 314.866534 118.096004 
L 315.104318 119.308487 
L 315.18358 119.290911 
L 315.896932 116.343433 
L 316.451761 115.009064 
L 316.92733 114.614128 
L 317.165114 116.488997 
L 317.402898 120.242933 
L 317.482159 119.053425 
L 317.799205 115.243874 
L 318.11625 114.255126 
L 318.67108 113.614233 
L 319.067386 114.05982 
L 319.146648 114.203992 
L 319.225909 114.600196 
L 319.384432 116.641294 
L 319.463693 116.283515 
L 319.780739 112.781478 
L 320.177045 111.25113 
L 320.41483 110.806212 
L 320.573352 110.928582 
L 320.811136 112.15198 
L 321.04892 114.97363 
L 321.128182 114.826614 
L 321.445227 111.598444 
L 321.762273 110.325543 
L 322.000057 110.069018 
L 322.237841 110.300537 
L 322.79267 112.091382 
L 323.030455 113.303863 
L 323.109716 113.286288 
L 323.823068 110.338812 
L 324.377898 109.004442 
L 324.853466 108.609506 
L 325.09125 110.484375 
L 325.329034 114.238311 
L 325.408295 113.048803 
L 325.725341 109.239252 
L 326.042386 108.250504 
L 326.597216 107.609611 
L 326.993523 108.055198 
L 327.072784 108.199369 
L 327.152045 108.595573 
L 327.310568 110.636672 
L 327.38983 110.278893 
L 327.706875 106.776855 
L 328.103182 105.246507 
L 328.340966 104.801589 
L 328.499489 104.923959 
L 328.737273 106.147357 
L 328.975057 108.969007 
L 329.054318 108.821991 
L 329.371364 105.59382 
L 329.688409 104.32092 
L 329.926193 104.064394 
L 330.163977 104.295914 
L 330.718807 106.086758 
L 330.956591 107.29924 
L 331.035852 107.281665 
L 331.749205 104.334188 
L 332.304034 102.999818 
L 332.779602 102.604882 
L 333.017386 104.479752 
L 333.25517 108.233689 
L 333.334432 107.044179 
L 333.651477 103.234628 
L 333.968523 102.24588 
L 334.523352 101.604987 
L 334.919659 102.050574 
L 334.99892 102.194745 
L 335.078182 102.590949 
L 335.236705 104.632049 
L 335.315966 104.27427 
L 335.633011 100.772231 
L 336.029318 99.241883 
L 336.267102 98.796965 
L 336.425625 98.919335 
L 336.663409 100.142734 
L 336.901193 102.964383 
L 336.980455 102.817368 
L 337.2975 99.589197 
L 337.614545 98.316296 
L 337.85233 98.05977 
L 338.090114 98.29129 
L 338.644943 100.082135 
L 338.882727 101.294617 
L 338.961989 101.277041 
L 339.675341 98.329564 
L 340.23017 96.995194 
L 340.705739 96.600258 
L 340.943523 98.475127 
L 341.181307 102.229062 
L 341.260568 101.039554 
L 341.577614 97.230004 
L 341.894659 96.241256 
L 342.449489 95.600362 
L 342.845795 96.04595 
L 342.925057 96.190121 
L 343.004318 96.586325 
L 343.162841 98.627423 
L 343.242102 98.269645 
L 343.559148 94.767607 
L 343.955455 93.237259 
L 344.193239 92.792341 
L 344.351761 92.914711 
L 344.589545 94.138109 
L 344.82733 96.959759 
L 344.906591 96.812743 
L 345.223636 93.584572 
L 345.540682 92.311671 
L 345.778466 92.055146 
L 346.01625 92.286666 
L 346.57108 94.07751 
L 346.808864 95.289992 
L 346.888125 95.272416 
L 347.601477 92.32494 
L 348.156307 90.99057 
L 348.631875 90.595634 
L 348.869659 92.470504 
L 349.107443 96.224438 
L 349.186705 95.034929 
L 349.50375 91.225379 
L 349.820795 90.236632 
L 350.375625 89.595739 
L 350.771932 90.041326 
L 350.851193 90.185497 
L 350.930455 90.581702 
L 351.088977 92.622799 
L 351.168239 92.26502 
L 351.485284 88.762983 
L 351.881591 87.232635 
L 352.119375 86.787718 
L 352.277898 86.910088 
L 352.515682 88.133486 
L 352.753466 90.955136 
L 352.832727 90.80812 
L 353.149773 87.579949 
L 353.466818 86.307048 
L 353.704602 86.050523 
L 353.942386 86.282042 
L 354.497216 88.072887 
L 354.735 89.28537 
L 354.814261 89.267793 
L 355.527614 86.320316 
L 356.082443 84.985948 
L 356.558011 84.591011 
L 356.795795 86.46588 
L 357.03358 90.219814 
L 357.112841 89.030306 
L 357.429886 85.220757 
L 357.746932 84.232009 
L 358.301761 83.591117 
L 358.698068 84.036704 
L 358.77733 84.180875 
L 358.856591 84.577079 
L 359.015114 86.618176 
L 359.094375 86.260397 
L 359.41142 82.75836 
L 359.807727 81.228013 
L 360.045511 80.783095 
L 360.204034 80.905465 
L 360.441818 82.128863 
L 360.679602 84.950514 
L 360.758864 84.803497 
L 361.075909 81.575325 
L 361.392955 80.302425 
L 361.630739 80.045899 
L 361.868523 80.27742 
L 362.423352 82.068265 
L 362.661136 83.280746 
L 362.740398 83.26317 
L 363.45375 80.315693 
L 364.00858 78.981324 
L 364.484148 78.586387 
L 364.721932 80.461257 
L 364.959716 84.215189 
L 365.038977 83.025682 
L 365.356023 79.216133 
L 365.673068 78.227386 
L 366.227898 77.586493 
L 366.624205 78.03208 
L 366.703466 78.176251 
L 366.782727 78.572456 
L 366.94125 80.613552 
L 367.020511 80.255774 
L 367.337557 76.753737 
L 367.733864 75.22339 
L 367.971648 74.778472 
L 368.13017 74.900842 
L 368.367955 76.12424 
L 368.605739 78.945891 
L 368.685 78.798875 
L 369.002045 75.570703 
L 369.319091 74.297802 
L 369.556875 74.041277 
L 369.794659 74.272797 
L 370.349489 76.063641 
L 370.587273 77.276122 
L 370.666534 77.258547 
L 371.379886 74.311071 
L 371.934716 72.976701 
L 372.410284 72.581765 
L 372.648068 74.456635 
L 372.885852 78.21057 
L 372.965114 77.021059 
L 373.282159 73.21151 
L 373.599205 72.222763 
L 374.154034 71.58187 
L 374.550341 72.027457 
L 374.629602 72.171628 
L 374.708864 72.567833 
L 374.867386 74.608931 
L 374.946648 74.251152 
L 375.263693 70.749114 
L 375.66 69.218766 
L 375.897784 68.773849 
L 376.056307 68.896219 
L 376.294091 70.119617 
L 376.531875 72.941268 
L 376.611136 72.79425 
L 376.928182 69.566079 
L 377.245227 68.293179 
L 377.483011 68.036653 
L 377.720795 68.268173 
L 378.275625 70.059018 
L 378.513409 71.271499 
L 378.59267 71.253923 
L 379.306023 68.306446 
L 379.860852 66.972077 
L 380.33642 66.577141 
L 380.574205 68.45201 
L 380.811989 72.205945 
L 380.89125 71.016436 
L 381.208295 67.206887 
L 381.525341 66.218139 
L 382.08017 65.577246 
L 382.476477 66.022833 
L 382.555739 66.167004 
L 382.635 66.563209 
L 382.793523 68.604306 
L 382.872784 68.246528 
L 383.18983 64.74449 
L 383.586136 63.214143 
L 383.82392 62.769225 
L 383.982443 62.891595 
L 384.220227 64.114993 
L 384.458011 66.936642 
L 384.537273 66.789627 
L 384.854318 63.561457 
L 385.171364 62.288556 
L 385.409148 62.03203 
L 385.646932 62.263549 
L 386.201761 64.054393 
L 386.439545 65.266875 
L 386.518807 65.2493 
L 387.232159 62.301824 
L 387.786989 60.967454 
L 388.262557 60.572517 
L 388.500341 62.447387 
L 388.738125 66.201323 
L 388.817386 65.011815 
L 389.134432 61.202263 
L 389.451477 60.213516 
L 390.006307 59.572623 
L 390.402614 60.01821 
L 390.481875 60.162381 
L 390.561136 60.558585 
L 390.719659 62.599684 
L 390.79892 62.241905 
L 391.115966 58.739867 
L 391.512273 57.209519 
L 391.750057 56.764601 
L 391.90858 56.886972 
L 392.146364 58.11037 
L 392.384148 60.932019 
L 392.463409 60.785003 
L 392.780455 57.556833 
L 393.0975 56.283932 
L 393.335284 56.027406 
L 393.573068 56.258926 
L 394.127898 58.049771 
L 394.365682 59.262252 
L 394.444943 59.244677 
L 395.158295 56.2972 
L 395.713125 54.962831 
L 396.188693 54.567894 
L 396.426477 56.442764 
L 396.664261 60.1967 
L 396.743523 59.007191 
L 397.060568 55.19764 
L 397.377614 54.208893 
L 397.932443 53.568 
L 398.32875 54.013587 
L 398.408011 54.157758 
L 398.487273 54.553963 
L 398.487273 54.553963 
" style="fill:none;stroke:#1f77b4;stroke-linecap:square;stroke-width:1.5;"/>
   </g>
   <g id="patch_3">
    <path d="M 57.6 307.584 
L 57.6 41.472 
" style="fill:none;stroke:#000000;stroke-linecap:square;stroke-linejoin:miter;stroke-width:0.8;"/>
   </g>
   <g id="patch_4">
    <path d="M 414.72 307.584 
L 414.72 41.472 
" style="fill:none;stroke:#000000;stroke-linecap:square;stroke-linejoin:miter;stroke-width:0.8;"/>
   </g>
   <g id="patch_5">
    <path d="M 57.6 307.584 
L 414.72 307.584 
" style="fill:none;stroke:#000000;stroke-linecap:square;stroke-linejoin:miter;stroke-width:0.8;"/>
   </g>
   <g id="patch_6">
    <path d="M 57.6 41.472 
L 414.72 41.472 
" style="fill:none;stroke:#000000;stroke-linecap:square;stroke-linejoin:miter;stroke-width:0.8;"/>
   </g>
   <g id="legend_1">
    <g id="patch_7">
     <path d="M 64.6 64.150125 
L 118.396875 64.150125 
Q 120.396875 64.150125 120.396875 62.150125 
L 120.396875 48.472 
Q 120.396875 46.472 118.396875 46.472 
L 64.6 46.472 
Q 62.6 46.472 62.6 48.472 
L 62.6 62.150125 
Q 62.6 64.150125 64.6 64.150125 
z
" style="fill:#ffffff;opacity:0.8;stroke:#cccccc;stroke-linejoin:miter;"/>
    </g>
    <g id="line2d_15">
     <path d="M 66.6 54.570438 
L 86.6 54.570438 
" style="fill:none;stroke:#1f77b4;stroke-linecap:square;stroke-width:1.5;"/>
    </g>
    <g id="line2d_16"/>
    <g id="text_16">
     <!-- SGD -->
     <defs>
      <path d="M 53.515625 70.515625 
L 53.515625 60.890625 
Q 47.90625 63.578125 42.921875 64.890625 
Q 37.9375 66.21875 33.296875 66.21875 
Q 25.25 66.21875 20.875 63.09375 
Q 16.5 59.96875 16.5 54.203125 
Q 16.5 49.359375 19.40625 46.890625 
Q 22.3125 44.4375 30.421875 42.921875 
L 36.375 41.703125 
Q 47.40625 39.59375 52.65625 34.296875 
Q 57.90625 29 57.90625 20.125 
Q 57.90625 9.515625 50.796875 4.046875 
Q 43.703125 -1.421875 29.984375 -1.421875 
Q 24.8125 -1.421875 18.96875 -0.25 
Q 13.140625 0.921875 6.890625 3.21875 
L 6.890625 13.375 
Q 12.890625 10.015625 18.65625 8.296875 
Q 24.421875 6.59375 29.984375 6.59375 
Q 38.421875 6.59375 43.015625 9.90625 
Q 47.609375 13.234375 47.609375 19.390625 
Q 47.609375 24.75 44.3125 27.78125 
Q 41.015625 30.8125 33.5 32.328125 
L 27.484375 33.5 
Q 16.453125 35.6875 11.515625 40.375 
Q 6.59375 45.0625 6.59375 53.421875 
Q 6.59375 63.09375 13.40625 68.65625 
Q 20.21875 74.21875 32.171875 74.21875 
Q 37.3125 74.21875 42.625 73.28125 
Q 47.953125 72.359375 53.515625 70.515625 
z
" id="DejaVuSans-53"/>
      <path d="M 59.515625 10.40625 
L 59.515625 29.984375 
L 43.40625 29.984375 
L 43.40625 38.09375 
L 69.28125 38.09375 
L 69.28125 6.78125 
Q 63.578125 2.734375 56.6875 0.65625 
Q 49.8125 -1.421875 42 -1.421875 
Q 24.90625 -1.421875 15.25 8.5625 
Q 5.609375 18.5625 5.609375 36.375 
Q 5.609375 54.25 15.25 64.234375 
Q 24.90625 74.21875 42 74.21875 
Q 49.125 74.21875 55.546875 72.453125 
Q 61.96875 70.703125 67.390625 67.28125 
L 67.390625 56.78125 
Q 61.921875 61.421875 55.765625 63.765625 
Q 49.609375 66.109375 42.828125 66.109375 
Q 29.4375 66.109375 22.71875 58.640625 
Q 16.015625 51.171875 16.015625 36.375 
Q 16.015625 21.625 22.71875 14.15625 
Q 29.4375 6.6875 42.828125 6.6875 
Q 48.046875 6.6875 52.140625 7.59375 
Q 56.25 8.5 59.515625 10.40625 
z
" id="DejaVuSans-47"/>
     </defs>
     <g transform="translate(94.6 58.070438)scale(0.1 -0.1)">
      <use xlink:href="#DejaVuSans-53"/>
      <use x="63.476562" xlink:href="#DejaVuSans-47"/>
      <use x="140.966797" xlink:href="#DejaVuSans-44"/>
     </g>
    </g>
   </g>
  </g>
 </g>
 <defs>
  <clipPath id="p32f3b1ed23">
   <rect height="266.112" width="357.12" x="57.6" y="41.472"/>
  </clipPath>
 </defs>
</svg>
